<?xml version="1.0" encoding="UTF-8" standalone="no"?>
<!DOCTYPE svg PUBLIC "-//W3C//DTD SVG 1.1//EN"
 "http://www.w3.org/Graphics/SVG/1.1/DTD/svg11.dtd">
<!-- Generated by graphviz version 9.0.0 (0)
 -->
<!-- Title: controllers_diagram Pages: 1 -->
<svg width="427pt" height="365pt"
 viewBox="0.00 0.00 426.75 364.75" xmlns="http://www.w3.org/2000/svg" xmlns:xlink="http://www.w3.org/1999/xlink">
<g id="graph0" class="graph" transform="scale(1 1) rotate(0) translate(4 360.75)">
<title>controllers_diagram</title>
<polygon fill="none" stroke="none" points="-4,4 -4,-360.75 422.75,-360.75 422.75,4 -4,4"/>
<!-- _diagram_info -->
<g id="node1" class="node">
<title>_diagram_info</title>
<text text-anchor="start" x="8" y="-170.15" font-family="Times,serif" font-size="13.00">Controllers diagram</text>
<text text-anchor="start" x="8" y="-153.65" font-family="Times,serif" font-size="13.00">Date: Oct 06 2023 &#45; 15:35</text>
<text text-anchor="start" x="8" y="-137.15" font-family="Times,serif" font-size="13.00">Migration version: 20231006122230</text>
<text text-anchor="start" x="8" y="-120.65" font-family="Times,serif" font-size="13.00">Generated by RailRoady 1.6.0</text>
<text text-anchor="start" x="8" y="-104.15" font-family="Times,serif" font-size="13.00">http://railroady.prestonlee.com</text>
</g>
<!-- ApplicationController -->
<g id="node2" class="node">
<title>ApplicationController</title>
<path fill="none" stroke="black" d="M236,-224.5C236,-224.5 381,-224.5 381,-224.5 387,-224.5 393,-230.5 393,-236.5 393,-236.5 393,-311 393,-311 393,-317 387,-323 381,-323 381,-323 236,-323 236,-323 230,-323 224,-317 224,-311 224,-311 224,-236.5 224,-236.5 224,-230.5 230,-224.5 236,-224.5"/>
<text text-anchor="middle" x="308.5" y="-305.7" font-family="Times,serif" font-size="14.00">ApplicationController</text>
<polyline fill="none" stroke="black" points="224,-297.75 393,-297.75"/>
<polyline fill="none" stroke="black" points="224,-273.75 393,-273.75"/>
<polyline fill="none" stroke="black" points="224,-249.75 393,-249.75"/>
<text text-anchor="start" x="232" y="-232.45" font-family="Times,serif" font-size="14.00">_layout</text>
</g>
<!-- PagesController -->
<g id="node3" class="node">
<title>PagesController</title>
<path fill="none" stroke="black" d="M300,-0.5C300,-0.5 406.75,-0.5 406.75,-0.5 412.75,-0.5 418.75,-6.5 418.75,-12.5 418.75,-12.5 418.75,-88.25 418.75,-88.25 418.75,-94.25 412.75,-100.25 406.75,-100.25 406.75,-100.25 300,-100.25 300,-100.25 294,-100.25 288,-94.25 288,-88.25 288,-88.25 288,-12.5 288,-12.5 288,-6.5 294,-0.5 300,-0.5"/>
<text text-anchor="middle" x="353.38" y="-82.95" font-family="Times,serif" font-size="14.00">PagesController</text>
<polyline fill="none" stroke="black" points="288,-75 418.75,-75"/>
<text text-anchor="start" x="296" y="-57.7" font-family="Times,serif" font-size="14.00">index</text>
<polyline fill="none" stroke="black" points="288,-49.75 418.75,-49.75"/>
<polyline fill="none" stroke="black" points="288,-25.75 418.75,-25.75"/>
<text text-anchor="start" x="296" y="-8.45" font-family="Times,serif" font-size="14.00">_layout</text>
</g>
<!-- QuestionController -->
<g id="node4" class="node">
<title>QuestionController</title>
<path fill="none" stroke="black" d="M44,-256.5C44,-256.5 172.5,-256.5 172.5,-256.5 178.5,-256.5 184.5,-262.5 184.5,-268.5 184.5,-268.5 184.5,-344.25 184.5,-344.25 184.5,-350.25 178.5,-356.25 172.5,-356.25 172.5,-356.25 44,-356.25 44,-356.25 38,-356.25 32,-350.25 32,-344.25 32,-344.25 32,-268.5 32,-268.5 32,-262.5 38,-256.5 44,-256.5"/>
<text text-anchor="middle" x="108.25" y="-338.95" font-family="Times,serif" font-size="14.00">QuestionController</text>
<polyline fill="none" stroke="black" points="32,-331 184.5,-331"/>
<text text-anchor="start" x="40" y="-313.7" font-family="Times,serif" font-size="14.00">qusestion</text>
<polyline fill="none" stroke="black" points="32,-305.75 184.5,-305.75"/>
<polyline fill="none" stroke="black" points="32,-281.75 184.5,-281.75"/>
<text text-anchor="start" x="40" y="-264.45" font-family="Times,serif" font-size="14.00">_layout</text>
</g>
</g>
</svg>
