<?xml version="1.0" encoding="UTF-8" standalone="no"?>
<!DOCTYPE svg PUBLIC "-//W3C//DTD SVG 1.1//EN"
 "http://www.w3.org/Graphics/SVG/1.1/DTD/svg11.dtd">
<!-- Generated by graphviz version 9.0.0 (0)
 -->
<!-- Title: models_diagram Pages: 1 -->
<svg width="2462pt" height="944pt"
 viewBox="0.00 0.00 2461.75 944.25" xmlns="http://www.w3.org/2000/svg" xmlns:xlink="http://www.w3.org/1999/xlink">
<g id="graph0" class="graph" transform="scale(1 1) rotate(0) translate(4 940.25)">
<title>models_diagram</title>
<polygon fill="none" stroke="none" points="-4,4 -4,-940.25 2457.75,-940.25 2457.75,4 -4,4"/>
<!-- _diagram_info -->
<g id="node1" class="node">
<title>_diagram_info</title>
<text text-anchor="start" x="1264.75" y="-887.65" font-family="Times,serif" font-size="13.00">Models diagram</text>
<text text-anchor="start" x="1264.75" y="-871.15" font-family="Times,serif" font-size="13.00">Date: Oct 06 2023 &#45; 15:35</text>
<text text-anchor="start" x="1264.75" y="-854.65" font-family="Times,serif" font-size="13.00">Migration version: 20231006122230</text>
<text text-anchor="start" x="1264.75" y="-838.15" font-family="Times,serif" font-size="13.00">Generated by RailRoady 1.6.0</text>
<text text-anchor="start" x="1264.75" y="-821.65" font-family="Times,serif" font-size="13.00">http://railroady.prestonlee.com</text>
</g>
<!-- Alert -->
<g id="node2" class="node">
<title>Alert</title>
<path fill="none" stroke="black" d="M424,-399.75C424,-399.75 587.75,-399.75 587.75,-399.75 593.75,-399.75 599.75,-405.75 599.75,-411.75 599.75,-411.75 599.75,-524.5 599.75,-524.5 599.75,-530.5 593.75,-536.5 587.75,-536.5 587.75,-536.5 424,-536.5 424,-536.5 418,-536.5 412,-530.5 412,-524.5 412,-524.5 412,-411.75 412,-411.75 412,-405.75 418,-399.75 424,-399.75"/>
<text text-anchor="middle" x="505.88" y="-519.2" font-family="Times,serif" font-size="14.00">Alert</text>
<polyline fill="none" stroke="black" points="412,-511.25 599.75,-511.25"/>
<text text-anchor="start" x="420" y="-493.95" font-family="Times,serif" font-size="14.00">id :INTEGER</text>
<text text-anchor="start" x="420" y="-476.7" font-family="Times,serif" font-size="14.00">text :varchar</text>
<text text-anchor="start" x="420" y="-459.45" font-family="Times,serif" font-size="14.00">time :time</text>
<text text-anchor="start" x="420" y="-442.2" font-family="Times,serif" font-size="14.00">created_at :datetime(6)</text>
<text text-anchor="start" x="420" y="-424.95" font-family="Times,serif" font-size="14.00">updated_at :datetime(6)</text>
<text text-anchor="start" x="420" y="-407.7" font-family="Times,serif" font-size="14.00">user_id :INTEGER</text>
</g>
<!-- ApplicationRecord -->
<g id="node3" class="node">
<title>ApplicationRecord</title>
<ellipse fill="none" stroke="black" cx="2095.88" cy="-858.75" rx="102.77" ry="18"/>
<text text-anchor="middle" x="2095.88" y="-854.08" font-family="Times,serif" font-size="14.00">ApplicationRecord</text>
</g>
<!-- BataryCharge -->
<g id="node4" class="node">
<title>BataryCharge</title>
<path fill="none" stroke="black" d="M2278,-399.75C2278,-399.75 2441.75,-399.75 2441.75,-399.75 2447.75,-399.75 2453.75,-405.75 2453.75,-411.75 2453.75,-411.75 2453.75,-524.5 2453.75,-524.5 2453.75,-530.5 2447.75,-536.5 2441.75,-536.5 2441.75,-536.5 2278,-536.5 2278,-536.5 2272,-536.5 2266,-530.5 2266,-524.5 2266,-524.5 2266,-411.75 2266,-411.75 2266,-405.75 2272,-399.75 2278,-399.75"/>
<text text-anchor="middle" x="2359.88" y="-519.2" font-family="Times,serif" font-size="14.00">BataryCharge</text>
<polyline fill="none" stroke="black" points="2266,-511.25 2453.75,-511.25"/>
<text text-anchor="start" x="2274" y="-493.95" font-family="Times,serif" font-size="14.00">id :INTEGER</text>
<text text-anchor="start" x="2274" y="-476.7" font-family="Times,serif" font-size="14.00">procent :INTEGER</text>
<text text-anchor="start" x="2274" y="-459.45" font-family="Times,serif" font-size="14.00">time :time</text>
<text text-anchor="start" x="2274" y="-442.2" font-family="Times,serif" font-size="14.00">created_at :datetime(6)</text>
<text text-anchor="start" x="2274" y="-424.95" font-family="Times,serif" font-size="14.00">updated_at :datetime(6)</text>
<text text-anchor="start" x="2274" y="-407.7" font-family="Times,serif" font-size="14.00">scooter_id :INTEGER</text>
</g>
<!-- Detail -->
<g id="node5" class="node">
<title>Detail</title>
<path fill="none" stroke="black" d="M1248,-408.38C1248,-408.38 1411.75,-408.38 1411.75,-408.38 1417.75,-408.38 1423.75,-414.38 1423.75,-420.38 1423.75,-420.38 1423.75,-515.88 1423.75,-515.88 1423.75,-521.88 1417.75,-527.88 1411.75,-527.88 1411.75,-527.88 1248,-527.88 1248,-527.88 1242,-527.88 1236,-521.88 1236,-515.88 1236,-515.88 1236,-420.38 1236,-420.38 1236,-414.38 1242,-408.38 1248,-408.38"/>
<text text-anchor="middle" x="1329.88" y="-510.57" font-family="Times,serif" font-size="14.00">Detail</text>
<polyline fill="none" stroke="black" points="1236,-502.62 1423.75,-502.62"/>
<text text-anchor="start" x="1244" y="-485.32" font-family="Times,serif" font-size="14.00">id :INTEGER</text>
<text text-anchor="start" x="1244" y="-468.07" font-family="Times,serif" font-size="14.00">description :varchar</text>
<text text-anchor="start" x="1244" y="-450.82" font-family="Times,serif" font-size="14.00">created_at :datetime(6)</text>
<text text-anchor="start" x="1244" y="-433.57" font-family="Times,serif" font-size="14.00">updated_at :datetime(6)</text>
<text text-anchor="start" x="1244" y="-416.32" font-family="Times,serif" font-size="14.00">scooter_id :INTEGER</text>
</g>
<!-- Discount -->
<g id="node6" class="node">
<title>Discount</title>
<path fill="none" stroke="black" d="M1248,-191.5C1248,-191.5 1411.75,-191.5 1411.75,-191.5 1417.75,-191.5 1423.75,-197.5 1423.75,-203.5 1423.75,-203.5 1423.75,-333.5 1423.75,-333.5 1423.75,-339.5 1417.75,-345.5 1411.75,-345.5 1411.75,-345.5 1248,-345.5 1248,-345.5 1242,-345.5 1236,-339.5 1236,-333.5 1236,-333.5 1236,-203.5 1236,-203.5 1236,-197.5 1242,-191.5 1248,-191.5"/>
<text text-anchor="middle" x="1329.88" y="-328.2" font-family="Times,serif" font-size="14.00">Discount</text>
<polyline fill="none" stroke="black" points="1236,-320.25 1423.75,-320.25"/>
<text text-anchor="start" x="1244" y="-302.95" font-family="Times,serif" font-size="14.00">id :INTEGER</text>
<text text-anchor="start" x="1244" y="-285.7" font-family="Times,serif" font-size="14.00">description :varchar</text>
<text text-anchor="start" x="1244" y="-268.45" font-family="Times,serif" font-size="14.00">procent :INTEGER</text>
<text text-anchor="start" x="1244" y="-251.2" font-family="Times,serif" font-size="14.00">days :date</text>
<text text-anchor="start" x="1244" y="-233.95" font-family="Times,serif" font-size="14.00">created_at :datetime(6)</text>
<text text-anchor="start" x="1244" y="-216.7" font-family="Times,serif" font-size="14.00">updated_at :datetime(6)</text>
<text text-anchor="start" x="1244" y="-199.45" font-family="Times,serif" font-size="14.00">rent_id :INTEGER</text>
</g>
<!-- ExcpectedCost -->
<g id="node7" class="node">
<title>ExcpectedCost</title>
<path fill="none" stroke="black" d="M404,-200.12C404,-200.12 567.75,-200.12 567.75,-200.12 573.75,-200.12 579.75,-206.12 579.75,-212.12 579.75,-212.12 579.75,-324.88 579.75,-324.88 579.75,-330.88 573.75,-336.88 567.75,-336.88 567.75,-336.88 404,-336.88 404,-336.88 398,-336.88 392,-330.88 392,-324.88 392,-324.88 392,-212.12 392,-212.12 392,-206.12 398,-200.12 404,-200.12"/>
<text text-anchor="middle" x="485.88" y="-319.57" font-family="Times,serif" font-size="14.00">ExcpectedCost</text>
<polyline fill="none" stroke="black" points="392,-311.62 579.75,-311.62"/>
<text text-anchor="start" x="400" y="-294.32" font-family="Times,serif" font-size="14.00">id :INTEGER</text>
<text text-anchor="start" x="400" y="-277.07" font-family="Times,serif" font-size="14.00">time :time</text>
<text text-anchor="start" x="400" y="-259.82" font-family="Times,serif" font-size="14.00">summ :INTEGER</text>
<text text-anchor="start" x="400" y="-242.57" font-family="Times,serif" font-size="14.00">created_at :datetime(6)</text>
<text text-anchor="start" x="400" y="-225.32" font-family="Times,serif" font-size="14.00">updated_at :datetime(6)</text>
<text text-anchor="start" x="400" y="-208.07" font-family="Times,serif" font-size="14.00">rent_id :INTEGER</text>
</g>
<!-- Feedback -->
<g id="node8" class="node">
<title>Feedback</title>
<path fill="none" stroke="black" d="M218,-399.75C218,-399.75 381.75,-399.75 381.75,-399.75 387.75,-399.75 393.75,-405.75 393.75,-411.75 393.75,-411.75 393.75,-524.5 393.75,-524.5 393.75,-530.5 387.75,-536.5 381.75,-536.5 381.75,-536.5 218,-536.5 218,-536.5 212,-536.5 206,-530.5 206,-524.5 206,-524.5 206,-411.75 206,-411.75 206,-405.75 212,-399.75 218,-399.75"/>
<text text-anchor="middle" x="299.88" y="-519.2" font-family="Times,serif" font-size="14.00">Feedback</text>
<polyline fill="none" stroke="black" points="206,-511.25 393.75,-511.25"/>
<text text-anchor="start" x="214" y="-493.95" font-family="Times,serif" font-size="14.00">id :INTEGER</text>
<text text-anchor="start" x="214" y="-476.7" font-family="Times,serif" font-size="14.00">coment :varchar</text>
<text text-anchor="start" x="214" y="-459.45" font-family="Times,serif" font-size="14.00">rating :INTEGER</text>
<text text-anchor="start" x="214" y="-442.2" font-family="Times,serif" font-size="14.00">created_at :datetime(6)</text>
<text text-anchor="start" x="214" y="-424.95" font-family="Times,serif" font-size="14.00">updated_at :datetime(6)</text>
<text text-anchor="start" x="214" y="-407.7" font-family="Times,serif" font-size="14.00">user_id :INTEGER</text>
</g>
<!-- History -->
<g id="node9" class="node">
<title>History</title>
<path fill="none" stroke="black" d="M836,-391.12C836,-391.12 999.75,-391.12 999.75,-391.12 1005.75,-391.12 1011.75,-397.12 1011.75,-403.12 1011.75,-403.12 1011.75,-533.12 1011.75,-533.12 1011.75,-539.12 1005.75,-545.12 999.75,-545.12 999.75,-545.12 836,-545.12 836,-545.12 830,-545.12 824,-539.12 824,-533.12 824,-533.12 824,-403.12 824,-403.12 824,-397.12 830,-391.12 836,-391.12"/>
<text text-anchor="middle" x="917.88" y="-527.83" font-family="Times,serif" font-size="14.00">History</text>
<polyline fill="none" stroke="black" points="824,-519.88 1011.75,-519.88"/>
<text text-anchor="start" x="832" y="-502.57" font-family="Times,serif" font-size="14.00">id :INTEGER</text>
<text text-anchor="start" x="832" y="-485.32" font-family="Times,serif" font-size="14.00">start_time :time</text>
<text text-anchor="start" x="832" y="-468.07" font-family="Times,serif" font-size="14.00">end_time :time</text>
<text text-anchor="start" x="832" y="-450.82" font-family="Times,serif" font-size="14.00">created_at :datetime(6)</text>
<text text-anchor="start" x="832" y="-433.57" font-family="Times,serif" font-size="14.00">updated_at :datetime(6)</text>
<text text-anchor="start" x="832" y="-416.32" font-family="Times,serif" font-size="14.00">user_id :INTEGER</text>
<text text-anchor="start" x="832" y="-399.07" font-family="Times,serif" font-size="14.00">scooter_id :INTEGER</text>
</g>
<!-- Insurance -->
<g id="node10" class="node">
<title>Insurance</title>
<path fill="none" stroke="black" d="M1545,-790.38C1545,-790.38 1708.75,-790.38 1708.75,-790.38 1714.75,-790.38 1720.75,-796.38 1720.75,-802.38 1720.75,-802.38 1720.75,-915.12 1720.75,-915.12 1720.75,-921.12 1714.75,-927.12 1708.75,-927.12 1708.75,-927.12 1545,-927.12 1545,-927.12 1539,-927.12 1533,-921.12 1533,-915.12 1533,-915.12 1533,-802.38 1533,-802.38 1533,-796.38 1539,-790.38 1545,-790.38"/>
<text text-anchor="middle" x="1626.88" y="-909.83" font-family="Times,serif" font-size="14.00">Insurance</text>
<polyline fill="none" stroke="black" points="1533,-901.88 1720.75,-901.88"/>
<text text-anchor="start" x="1541" y="-884.58" font-family="Times,serif" font-size="14.00">id :INTEGER</text>
<text text-anchor="start" x="1541" y="-867.33" font-family="Times,serif" font-size="14.00">policy_number :varchar</text>
<text text-anchor="start" x="1541" y="-850.08" font-family="Times,serif" font-size="14.00">price :INTEGER</text>
<text text-anchor="start" x="1541" y="-832.83" font-family="Times,serif" font-size="14.00">scooter_id :INTEGER</text>
<text text-anchor="start" x="1541" y="-815.58" font-family="Times,serif" font-size="14.00">created_at :datetime(6)</text>
<text text-anchor="start" x="1541" y="-798.33" font-family="Times,serif" font-size="14.00">updated_at :datetime(6)</text>
</g>
<!-- Scooter -->
<g id="node22" class="node">
<title>Scooter</title>
<path fill="none" stroke="black" d="M1655.88,-590.75C1655.88,-590.75 1827.88,-590.75 1827.88,-590.75 1833.88,-590.75 1839.88,-596.75 1839.88,-602.75 1839.88,-602.75 1839.88,-732.75 1839.88,-732.75 1839.88,-738.75 1833.88,-744.75 1827.88,-744.75 1827.88,-744.75 1655.88,-744.75 1655.88,-744.75 1649.88,-744.75 1643.88,-738.75 1643.88,-732.75 1643.88,-732.75 1643.88,-602.75 1643.88,-602.75 1643.88,-596.75 1649.88,-590.75 1655.88,-590.75"/>
<text text-anchor="middle" x="1741.88" y="-727.45" font-family="Times,serif" font-size="14.00">Scooter</text>
<polyline fill="none" stroke="black" points="1643.88,-719.5 1839.88,-719.5"/>
<text text-anchor="start" x="1651.88" y="-702.2" font-family="Times,serif" font-size="14.00">id :INTEGER</text>
<text text-anchor="start" x="1651.88" y="-684.95" font-family="Times,serif" font-size="14.00">model :INTEGER</text>
<text text-anchor="start" x="1651.88" y="-667.7" font-family="Times,serif" font-size="14.00">serial_number :INTEGER</text>
<text text-anchor="start" x="1651.88" y="-650.45" font-family="Times,serif" font-size="14.00">batary :INTEGER</text>
<text text-anchor="start" x="1651.88" y="-633.2" font-family="Times,serif" font-size="14.00">coordinate :INTEGER</text>
<text text-anchor="start" x="1651.88" y="-615.95" font-family="Times,serif" font-size="14.00">created_at :datetime(6)</text>
<text text-anchor="start" x="1651.88" y="-598.7" font-family="Times,serif" font-size="14.00">updated_at :datetime(6)</text>
</g>
<!-- Insurance&#45;&gt;Scooter -->
<g id="edge1" class="edge">
<title>Insurance&#45;&gt;Scooter</title>
<path fill="none" stroke="#b11ea8" d="M1673.34,-781.39C1678.87,-772.29 1684.55,-762.96 1690.16,-753.75"/>
<polygon fill="#b11ea8" stroke="#b11ea8" points="1673.44,-781.22 1664.4,-787.43 1670.67,-785.78 1668.42,-789.48 1668.42,-789.48 1668.42,-789.48 1670.67,-785.78 1672.09,-792.1 1673.44,-781.22"/>
<polygon fill="#b11ea8" stroke="#b11ea8" points="1690.13,-753.79 1699.17,-747.59 1692.9,-749.24 1695.15,-745.54 1695.15,-745.54 1695.15,-745.54 1692.9,-749.24 1691.48,-742.91 1690.13,-753.79"/>
</g>
<!-- IntermediateStop -->
<g id="node11" class="node">
<title>IntermediateStop</title>
<path fill="none" stroke="black" d="M610,-200.12C610,-200.12 773.75,-200.12 773.75,-200.12 779.75,-200.12 785.75,-206.12 785.75,-212.12 785.75,-212.12 785.75,-324.88 785.75,-324.88 785.75,-330.88 779.75,-336.88 773.75,-336.88 773.75,-336.88 610,-336.88 610,-336.88 604,-336.88 598,-330.88 598,-324.88 598,-324.88 598,-212.12 598,-212.12 598,-206.12 604,-200.12 610,-200.12"/>
<text text-anchor="middle" x="691.88" y="-319.57" font-family="Times,serif" font-size="14.00">IntermediateStop</text>
<polyline fill="none" stroke="black" points="598,-311.62 785.75,-311.62"/>
<text text-anchor="start" x="606" y="-294.32" font-family="Times,serif" font-size="14.00">id :INTEGER</text>
<text text-anchor="start" x="606" y="-277.07" font-family="Times,serif" font-size="14.00">location :varchar</text>
<text text-anchor="start" x="606" y="-259.82" font-family="Times,serif" font-size="14.00">time :time</text>
<text text-anchor="start" x="606" y="-242.57" font-family="Times,serif" font-size="14.00">created_at :datetime(6)</text>
<text text-anchor="start" x="606" y="-225.32" font-family="Times,serif" font-size="14.00">updated_at :datetime(6)</text>
<text text-anchor="start" x="606" y="-208.07" font-family="Times,serif" font-size="14.00">rent_id :INTEGER</text>
</g>
<!-- Location -->
<g id="node12" class="node">
<title>Location</title>
<path fill="none" stroke="black" d="M1660,-399.75C1660,-399.75 1823.75,-399.75 1823.75,-399.75 1829.75,-399.75 1835.75,-405.75 1835.75,-411.75 1835.75,-411.75 1835.75,-524.5 1835.75,-524.5 1835.75,-530.5 1829.75,-536.5 1823.75,-536.5 1823.75,-536.5 1660,-536.5 1660,-536.5 1654,-536.5 1648,-530.5 1648,-524.5 1648,-524.5 1648,-411.75 1648,-411.75 1648,-405.75 1654,-399.75 1660,-399.75"/>
<text text-anchor="middle" x="1741.88" y="-519.2" font-family="Times,serif" font-size="14.00">Location</text>
<polyline fill="none" stroke="black" points="1648,-511.25 1835.75,-511.25"/>
<text text-anchor="start" x="1656" y="-493.95" font-family="Times,serif" font-size="14.00">id :INTEGER</text>
<text text-anchor="start" x="1656" y="-476.7" font-family="Times,serif" font-size="14.00">coordinate :INTEGER</text>
<text text-anchor="start" x="1656" y="-459.45" font-family="Times,serif" font-size="14.00">time_start :time</text>
<text text-anchor="start" x="1656" y="-442.2" font-family="Times,serif" font-size="14.00">created_at :datetime(6)</text>
<text text-anchor="start" x="1656" y="-424.95" font-family="Times,serif" font-size="14.00">updated_at :datetime(6)</text>
<text text-anchor="start" x="1656" y="-407.7" font-family="Times,serif" font-size="14.00">scooter_id :INTEGER</text>
</g>
<!-- Price -->
<g id="node13" class="node">
<title>Price</title>
<path fill="none" stroke="black" d="M816.25,-191.5C816.25,-191.5 999.5,-191.5 999.5,-191.5 1005.5,-191.5 1011.5,-197.5 1011.5,-203.5 1011.5,-203.5 1011.5,-333.5 1011.5,-333.5 1011.5,-339.5 1005.5,-345.5 999.5,-345.5 999.5,-345.5 816.25,-345.5 816.25,-345.5 810.25,-345.5 804.25,-339.5 804.25,-333.5 804.25,-333.5 804.25,-203.5 804.25,-203.5 804.25,-197.5 810.25,-191.5 816.25,-191.5"/>
<text text-anchor="middle" x="907.88" y="-328.2" font-family="Times,serif" font-size="14.00">Price</text>
<polyline fill="none" stroke="black" points="804.25,-320.25 1011.5,-320.25"/>
<text text-anchor="start" x="812.25" y="-302.95" font-family="Times,serif" font-size="14.00">id :INTEGER</text>
<text text-anchor="start" x="812.25" y="-285.7" font-family="Times,serif" font-size="14.00">model :varchar</text>
<text text-anchor="start" x="812.25" y="-268.45" font-family="Times,serif" font-size="14.00">price_in_minute :INTEGER</text>
<text text-anchor="start" x="812.25" y="-251.2" font-family="Times,serif" font-size="14.00">special_days :date</text>
<text text-anchor="start" x="812.25" y="-233.95" font-family="Times,serif" font-size="14.00">created_at :datetime(6)</text>
<text text-anchor="start" x="812.25" y="-216.7" font-family="Times,serif" font-size="14.00">updated_at :datetime(6)</text>
<text text-anchor="start" x="812.25" y="-199.45" font-family="Times,serif" font-size="14.00">rent_id :INTEGER</text>
</g>
<!-- ProgressingPrice -->
<g id="node14" class="node">
<title>ProgressingPrice</title>
<path fill="none" stroke="black" d="M1042,-208.75C1042,-208.75 1205.75,-208.75 1205.75,-208.75 1211.75,-208.75 1217.75,-214.75 1217.75,-220.75 1217.75,-220.75 1217.75,-316.25 1217.75,-316.25 1217.75,-322.25 1211.75,-328.25 1205.75,-328.25 1205.75,-328.25 1042,-328.25 1042,-328.25 1036,-328.25 1030,-322.25 1030,-316.25 1030,-316.25 1030,-220.75 1030,-220.75 1030,-214.75 1036,-208.75 1042,-208.75"/>
<text text-anchor="middle" x="1123.88" y="-310.95" font-family="Times,serif" font-size="14.00">ProgressingPrice</text>
<polyline fill="none" stroke="black" points="1030,-303 1217.75,-303"/>
<text text-anchor="start" x="1038" y="-285.7" font-family="Times,serif" font-size="14.00">id :INTEGER</text>
<text text-anchor="start" x="1038" y="-268.45" font-family="Times,serif" font-size="14.00">summ :INTEGER</text>
<text text-anchor="start" x="1038" y="-251.2" font-family="Times,serif" font-size="14.00">created_at :datetime(6)</text>
<text text-anchor="start" x="1038" y="-233.95" font-family="Times,serif" font-size="14.00">updated_at :datetime(6)</text>
<text text-anchor="start" x="1038" y="-216.7" font-family="Times,serif" font-size="14.00">rent_id :INTEGER</text>
</g>
<!-- Purchase -->
<g id="node15" class="node">
<title>Purchase</title>
<path fill="none" stroke="black" d="M630,-399.75C630,-399.75 793.75,-399.75 793.75,-399.75 799.75,-399.75 805.75,-405.75 805.75,-411.75 805.75,-411.75 805.75,-524.5 805.75,-524.5 805.75,-530.5 799.75,-536.5 793.75,-536.5 793.75,-536.5 630,-536.5 630,-536.5 624,-536.5 618,-530.5 618,-524.5 618,-524.5 618,-411.75 618,-411.75 618,-405.75 624,-399.75 630,-399.75"/>
<text text-anchor="middle" x="711.88" y="-519.2" font-family="Times,serif" font-size="14.00">Purchase</text>
<polyline fill="none" stroke="black" points="618,-511.25 805.75,-511.25"/>
<text text-anchor="start" x="626" y="-493.95" font-family="Times,serif" font-size="14.00">id :INTEGER</text>
<text text-anchor="start" x="626" y="-476.7" font-family="Times,serif" font-size="14.00">summ :INTEGER</text>
<text text-anchor="start" x="626" y="-459.45" font-family="Times,serif" font-size="14.00">date :date</text>
<text text-anchor="start" x="626" y="-442.2" font-family="Times,serif" font-size="14.00">created_at :datetime(6)</text>
<text text-anchor="start" x="626" y="-424.95" font-family="Times,serif" font-size="14.00">updated_at :datetime(6)</text>
<text text-anchor="start" x="626" y="-407.7" font-family="Times,serif" font-size="14.00">user_id :INTEGER</text>
</g>
<!-- Rating -->
<g id="node16" class="node">
<title>Rating</title>
<path fill="none" stroke="black" d="M12,-391.12C12,-391.12 175.75,-391.12 175.75,-391.12 181.75,-391.12 187.75,-397.12 187.75,-403.12 187.75,-403.12 187.75,-533.12 187.75,-533.12 187.75,-539.12 181.75,-545.12 175.75,-545.12 175.75,-545.12 12,-545.12 12,-545.12 6,-545.12 0,-539.12 0,-533.12 0,-533.12 0,-403.12 0,-403.12 0,-397.12 6,-391.12 12,-391.12"/>
<text text-anchor="middle" x="93.88" y="-527.83" font-family="Times,serif" font-size="14.00">Rating</text>
<polyline fill="none" stroke="black" points="0,-519.88 187.75,-519.88"/>
<text text-anchor="start" x="8" y="-502.57" font-family="Times,serif" font-size="14.00">id :INTEGER</text>
<text text-anchor="start" x="8" y="-485.32" font-family="Times,serif" font-size="14.00">rating :INTEGER</text>
<text text-anchor="start" x="8" y="-468.07" font-family="Times,serif" font-size="14.00">greeting :varchar</text>
<text text-anchor="start" x="8" y="-450.82" font-family="Times,serif" font-size="14.00">discount :INTEGER</text>
<text text-anchor="start" x="8" y="-433.57" font-family="Times,serif" font-size="14.00">created_at :datetime(6)</text>
<text text-anchor="start" x="8" y="-416.32" font-family="Times,serif" font-size="14.00">updated_at :datetime(6)</text>
<text text-anchor="start" x="8" y="-399.07" font-family="Times,serif" font-size="14.00">user_id :INTEGER</text>
</g>
<!-- RegistrationForService -->
<g id="node17" class="node">
<title>RegistrationForService</title>
<path fill="none" stroke="black" d="M1454,-191.5C1454,-191.5 1617.75,-191.5 1617.75,-191.5 1623.75,-191.5 1629.75,-197.5 1629.75,-203.5 1629.75,-203.5 1629.75,-333.5 1629.75,-333.5 1629.75,-339.5 1623.75,-345.5 1617.75,-345.5 1617.75,-345.5 1454,-345.5 1454,-345.5 1448,-345.5 1442,-339.5 1442,-333.5 1442,-333.5 1442,-203.5 1442,-203.5 1442,-197.5 1448,-191.5 1454,-191.5"/>
<text text-anchor="middle" x="1535.88" y="-328.2" font-family="Times,serif" font-size="14.00">RegistrationForService</text>
<polyline fill="none" stroke="black" points="1442,-320.25 1629.75,-320.25"/>
<text text-anchor="start" x="1450" y="-302.95" font-family="Times,serif" font-size="14.00">id :INTEGER</text>
<text text-anchor="start" x="1450" y="-285.7" font-family="Times,serif" font-size="14.00">scooter_id :INTEGER</text>
<text text-anchor="start" x="1450" y="-268.45" font-family="Times,serif" font-size="14.00">date :date</text>
<text text-anchor="start" x="1450" y="-251.2" font-family="Times,serif" font-size="14.00">created_at :datetime(6)</text>
<text text-anchor="start" x="1450" y="-233.95" font-family="Times,serif" font-size="14.00">updated_at :datetime(6)</text>
<text text-anchor="start" x="1450" y="-216.7" font-family="Times,serif" font-size="14.00">rent_id :INTEGER</text>
<text text-anchor="start" x="1450" y="-199.45" font-family="Times,serif" font-size="14.00">worker_id :INTEGER</text>
</g>
<!-- ReportsAboutWork -->
<g id="node19" class="node">
<title>ReportsAboutWork</title>
<path fill="none" stroke="black" d="M818.25,-9.12C818.25,-9.12 1085.5,-9.12 1085.5,-9.12 1091.5,-9.12 1097.5,-15.12 1097.5,-21.12 1097.5,-21.12 1097.5,-133.88 1097.5,-133.88 1097.5,-139.88 1091.5,-145.88 1085.5,-145.88 1085.5,-145.88 818.25,-145.88 818.25,-145.88 812.25,-145.88 806.25,-139.88 806.25,-133.88 806.25,-133.88 806.25,-21.12 806.25,-21.12 806.25,-15.12 812.25,-9.12 818.25,-9.12"/>
<text text-anchor="middle" x="951.88" y="-128.57" font-family="Times,serif" font-size="14.00">ReportsAboutWork</text>
<polyline fill="none" stroke="black" points="806.25,-120.62 1097.5,-120.62"/>
<text text-anchor="start" x="814.25" y="-103.33" font-family="Times,serif" font-size="14.00">id :INTEGER</text>
<text text-anchor="start" x="814.25" y="-86.08" font-family="Times,serif" font-size="14.00">description :varchar</text>
<text text-anchor="start" x="814.25" y="-68.83" font-family="Times,serif" font-size="14.00">created_at :datetime(6)</text>
<text text-anchor="start" x="814.25" y="-51.58" font-family="Times,serif" font-size="14.00">updated_at :datetime(6)</text>
<text text-anchor="start" x="814.25" y="-34.33" font-family="Times,serif" font-size="14.00">worker_id :INTEGER</text>
<text text-anchor="start" x="814.25" y="-17.07" font-family="Times,serif" font-size="14.00">registration_for_services_id :INTEGER</text>
</g>
<!-- RegistrationForService&#45;&gt;ReportsAboutWork -->
<g id="edge2" class="edge">
<title>RegistrationForService&#45;&gt;ReportsAboutWork</title>
<path fill="none" stroke="#dbb67b" d="M1431.93,-191.04C1294.46,-140.13 1243.02,-195.23 1105.88,-155 1100.59,-153.45 1095.27,-151.73 1089.95,-149.86"/>
<polygon fill="#dbb67b" stroke="#dbb67b" points="1431.9,-191.02 1439.63,-198.8 1436.88,-192.93 1440.92,-194.48 1440.92,-194.48 1440.92,-194.48 1436.88,-192.93 1442.84,-190.4 1431.9,-191.02"/>
<polygon fill="#dbb67b" stroke="#dbb67b" points="1090.07,-149.91 1082.22,-142.25 1085.06,-148.08 1080.99,-146.59 1080.99,-146.59 1080.99,-146.59 1085.06,-148.08 1079.14,-150.71 1090.07,-149.91"/>
</g>
<!-- RequestStatus -->
<g id="node21" class="node">
<title>RequestStatus</title>
<path fill="none" stroke="black" d="M1127.25,-17.75C1127.25,-17.75 1394.5,-17.75 1394.5,-17.75 1400.5,-17.75 1406.5,-23.75 1406.5,-29.75 1406.5,-29.75 1406.5,-125.25 1406.5,-125.25 1406.5,-131.25 1400.5,-137.25 1394.5,-137.25 1394.5,-137.25 1127.25,-137.25 1127.25,-137.25 1121.25,-137.25 1115.25,-131.25 1115.25,-125.25 1115.25,-125.25 1115.25,-29.75 1115.25,-29.75 1115.25,-23.75 1121.25,-17.75 1127.25,-17.75"/>
<text text-anchor="middle" x="1260.88" y="-119.95" font-family="Times,serif" font-size="14.00">RequestStatus</text>
<polyline fill="none" stroke="black" points="1115.25,-112 1406.5,-112"/>
<text text-anchor="start" x="1123.25" y="-94.7" font-family="Times,serif" font-size="14.00">id :INTEGER</text>
<text text-anchor="start" x="1123.25" y="-77.45" font-family="Times,serif" font-size="14.00">status :boolean</text>
<text text-anchor="start" x="1123.25" y="-60.2" font-family="Times,serif" font-size="14.00">created_at :datetime(6)</text>
<text text-anchor="start" x="1123.25" y="-42.95" font-family="Times,serif" font-size="14.00">updated_at :datetime(6)</text>
<text text-anchor="start" x="1123.25" y="-25.7" font-family="Times,serif" font-size="14.00">registration_for_services_id :INTEGER</text>
</g>
<!-- RegistrationForService&#45;&gt;RequestStatus -->
<g id="edge3" class="edge">
<title>RegistrationForService&#45;&gt;RequestStatus</title>
<path fill="none" stroke="#1f0801" d="M1433.42,-191.38C1433.24,-191.26 1433.06,-191.13 1432.88,-191 1410.2,-175.18 1385.49,-158.64 1362.06,-143.25"/>
<polygon fill="#1f0801" stroke="#1f0801" points="1433.29,-191.29 1438.88,-200.72 1437.65,-194.36 1441.19,-196.85 1441.19,-196.85 1441.19,-196.85 1437.65,-194.36 1444.06,-193.36 1433.29,-191.29"/>
<polygon fill="#1f0801" stroke="#1f0801" points="1362.14,-143.3 1356.24,-134.05 1357.68,-140.37 1354.05,-138 1354.05,-138 1354.05,-138 1357.68,-140.37 1351.31,-141.58 1362.14,-143.3"/>
</g>
<!-- ScooterSuplier -->
<g id="node23" class="node">
<title>ScooterSuplier</title>
<path fill="none" stroke="black" d="M1436.38,-0.5C1436.38,-0.5 1635.38,-0.5 1635.38,-0.5 1641.38,-0.5 1647.38,-6.5 1647.38,-12.5 1647.38,-12.5 1647.38,-142.5 1647.38,-142.5 1647.38,-148.5 1641.38,-154.5 1635.38,-154.5 1635.38,-154.5 1436.38,-154.5 1436.38,-154.5 1430.38,-154.5 1424.38,-148.5 1424.38,-142.5 1424.38,-142.5 1424.38,-12.5 1424.38,-12.5 1424.38,-6.5 1430.38,-0.5 1436.38,-0.5"/>
<text text-anchor="middle" x="1535.88" y="-137.2" font-family="Times,serif" font-size="14.00">ScooterSuplier</text>
<polyline fill="none" stroke="black" points="1424.38,-129.25 1647.38,-129.25"/>
<text text-anchor="start" x="1432.38" y="-111.95" font-family="Times,serif" font-size="14.00">id :INTEGER</text>
<text text-anchor="start" x="1432.38" y="-94.7" font-family="Times,serif" font-size="14.00">name :varchar</text>
<text text-anchor="start" x="1432.38" y="-77.45" font-family="Times,serif" font-size="14.00">legal_entities :varchar</text>
<text text-anchor="start" x="1432.38" y="-60.2" font-family="Times,serif" font-size="14.00">quantity :INTEGER</text>
<text text-anchor="start" x="1432.38" y="-42.95" font-family="Times,serif" font-size="14.00">created_at :datetime(6)</text>
<text text-anchor="start" x="1432.38" y="-25.7" font-family="Times,serif" font-size="14.00">updated_at :datetime(6)</text>
<text text-anchor="start" x="1432.38" y="-8.45" font-family="Times,serif" font-size="14.00">scooter_suplier_id :INTEGER</text>
</g>
<!-- RegistrationForService&#45;&gt;ScooterSuplier -->
<g id="edge5" class="edge">
<title>RegistrationForService&#45;&gt;ScooterSuplier</title>
<path fill="none" stroke="#925745" d="M1535.88,-180.98C1535.88,-175.66 1535.88,-170.3 1535.88,-164.98"/>
<polygon fill="#925745" stroke="#925745" points="1535.88,-180.84 1531.38,-190.84 1535.88,-186.17 1535.88,-190.5 1535.88,-190.5 1535.88,-190.5 1535.88,-186.17 1540.38,-190.84 1535.88,-180.84"/>
<polygon fill="#925745" stroke="#925745" points="1535.88,-165.14 1540.38,-155.14 1535.88,-159.81 1535.88,-155.48 1535.88,-155.48 1535.88,-155.48 1535.88,-159.81 1531.38,-155.14 1535.88,-165.14"/>
</g>
<!-- ServiceCost -->
<g id="node25" class="node">
<title>ServiceCost</title>
<path fill="none" stroke="black" d="M1677.25,-17.75C1677.25,-17.75 1944.5,-17.75 1944.5,-17.75 1950.5,-17.75 1956.5,-23.75 1956.5,-29.75 1956.5,-29.75 1956.5,-125.25 1956.5,-125.25 1956.5,-131.25 1950.5,-137.25 1944.5,-137.25 1944.5,-137.25 1677.25,-137.25 1677.25,-137.25 1671.25,-137.25 1665.25,-131.25 1665.25,-125.25 1665.25,-125.25 1665.25,-29.75 1665.25,-29.75 1665.25,-23.75 1671.25,-17.75 1677.25,-17.75"/>
<text text-anchor="middle" x="1810.88" y="-119.95" font-family="Times,serif" font-size="14.00">ServiceCost</text>
<polyline fill="none" stroke="black" points="1665.25,-112 1956.5,-112"/>
<text text-anchor="start" x="1673.25" y="-94.7" font-family="Times,serif" font-size="14.00">id :INTEGER</text>
<text text-anchor="start" x="1673.25" y="-77.45" font-family="Times,serif" font-size="14.00">price :INTEGER</text>
<text text-anchor="start" x="1673.25" y="-60.2" font-family="Times,serif" font-size="14.00">created_at :datetime(6)</text>
<text text-anchor="start" x="1673.25" y="-42.95" font-family="Times,serif" font-size="14.00">updated_at :datetime(6)</text>
<text text-anchor="start" x="1673.25" y="-25.7" font-family="Times,serif" font-size="14.00">registration_for_services_id :INTEGER</text>
</g>
<!-- RegistrationForService&#45;&gt;ServiceCost -->
<g id="edge4" class="edge">
<title>RegistrationForService&#45;&gt;ServiceCost</title>
<path fill="none" stroke="#1496ec" d="M1638.33,-191.38C1638.51,-191.26 1638.69,-191.13 1638.88,-191 1661.55,-175.18 1686.26,-158.64 1709.69,-143.25"/>
<polygon fill="#1496ec" stroke="#1496ec" points="1638.46,-191.29 1627.69,-193.36 1634.1,-194.36 1630.56,-196.85 1630.56,-196.85 1630.56,-196.85 1634.1,-194.36 1632.87,-200.72 1638.46,-191.29"/>
<polygon fill="#1496ec" stroke="#1496ec" points="1709.61,-143.3 1720.44,-141.58 1714.07,-140.37 1717.7,-138 1717.7,-138 1717.7,-138 1714.07,-140.37 1715.51,-134.05 1709.61,-143.3"/>
</g>
<!-- SparePart -->
<g id="node26" class="node">
<title>SparePart</title>
<path fill="none" stroke="black" d="M1986.5,-9.12C1986.5,-9.12 2153.25,-9.12 2153.25,-9.12 2159.25,-9.12 2165.25,-15.12 2165.25,-21.12 2165.25,-21.12 2165.25,-133.88 2165.25,-133.88 2165.25,-139.88 2159.25,-145.88 2153.25,-145.88 2153.25,-145.88 1986.5,-145.88 1986.5,-145.88 1980.5,-145.88 1974.5,-139.88 1974.5,-133.88 1974.5,-133.88 1974.5,-21.12 1974.5,-21.12 1974.5,-15.12 1980.5,-9.12 1986.5,-9.12"/>
<text text-anchor="middle" x="2069.88" y="-128.57" font-family="Times,serif" font-size="14.00">SparePart</text>
<polyline fill="none" stroke="black" points="1974.5,-120.62 2165.25,-120.62"/>
<text text-anchor="start" x="1982.5" y="-103.33" font-family="Times,serif" font-size="14.00">id :INTEGER</text>
<text text-anchor="start" x="1982.5" y="-86.08" font-family="Times,serif" font-size="14.00">name :varchar</text>
<text text-anchor="start" x="1982.5" y="-68.83" font-family="Times,serif" font-size="14.00">price :INTEGER</text>
<text text-anchor="start" x="1982.5" y="-51.58" font-family="Times,serif" font-size="14.00">created_at :datetime(6)</text>
<text text-anchor="start" x="1982.5" y="-34.33" font-family="Times,serif" font-size="14.00">updated_at :datetime(6)</text>
<text text-anchor="start" x="1982.5" y="-17.07" font-family="Times,serif" font-size="14.00">spare_part_id :INTEGER</text>
</g>
<!-- RegistrationForService&#45;&gt;SparePart -->
<g id="edge6" class="edge">
<title>RegistrationForService&#45;&gt;SparePart</title>
<path fill="none" stroke="#5cd6fd" d="M1639.82,-191.06C1777.46,-140.66 1832.72,-206.94 1965.88,-155 1969.16,-153.72 1972.43,-152.31 1975.68,-150.78"/>
<polygon fill="#5cd6fd" stroke="#5cd6fd" points="1639.86,-191.04 1628.91,-190.39 1634.88,-192.94 1630.83,-194.48 1630.83,-194.48 1630.83,-194.48 1634.88,-192.94 1632.12,-198.8 1639.86,-191.04"/>
<polygon fill="#5cd6fd" stroke="#5cd6fd" points="1975.54,-150.86 1986.5,-150.39 1980.31,-148.46 1984.18,-146.52 1984.18,-146.52 1984.18,-146.52 1980.31,-148.46 1982.46,-142.35 1975.54,-150.86"/>
</g>
<!-- Rent -->
<g id="node18" class="node">
<title>Rent</title>
<path fill="none" stroke="black" d="M1042,-382.5C1042,-382.5 1205.75,-382.5 1205.75,-382.5 1211.75,-382.5 1217.75,-388.5 1217.75,-394.5 1217.75,-394.5 1217.75,-541.75 1217.75,-541.75 1217.75,-547.75 1211.75,-553.75 1205.75,-553.75 1205.75,-553.75 1042,-553.75 1042,-553.75 1036,-553.75 1030,-547.75 1030,-541.75 1030,-541.75 1030,-394.5 1030,-394.5 1030,-388.5 1036,-382.5 1042,-382.5"/>
<text text-anchor="middle" x="1123.88" y="-536.45" font-family="Times,serif" font-size="14.00">Rent</text>
<polyline fill="none" stroke="black" points="1030,-528.5 1217.75,-528.5"/>
<text text-anchor="start" x="1038" y="-511.2" font-family="Times,serif" font-size="14.00">id :INTEGER</text>
<text text-anchor="start" x="1038" y="-493.95" font-family="Times,serif" font-size="14.00">time_start :time</text>
<text text-anchor="start" x="1038" y="-476.7" font-family="Times,serif" font-size="14.00">prognosing_time :time</text>
<text text-anchor="start" x="1038" y="-459.45" font-family="Times,serif" font-size="14.00">created_at :datetime(6)</text>
<text text-anchor="start" x="1038" y="-442.2" font-family="Times,serif" font-size="14.00">updated_at :datetime(6)</text>
<text text-anchor="start" x="1038" y="-424.95" font-family="Times,serif" font-size="14.00">user_id :INTEGER</text>
<text text-anchor="start" x="1038" y="-407.7" font-family="Times,serif" font-size="14.00">scooter_id :INTEGER</text>
<text text-anchor="start" x="1038" y="-390.45" font-family="Times,serif" font-size="14.00">time_end :time</text>
</g>
<!-- Rent&#45;&gt;Discount -->
<g id="edge11" class="edge">
<title>Rent&#45;&gt;Discount</title>
<path fill="none" stroke="#436f27" d="M1219.81,-375.09C1227.43,-367.78 1235.1,-360.42 1242.66,-353.17"/>
<polygon fill="#436f27" stroke="#436f27" points="1219.89,-375.01 1209.56,-378.69 1216.04,-378.71 1212.92,-381.7 1212.92,-381.7 1212.92,-381.7 1216.04,-378.71 1215.79,-385.18 1219.89,-375.01"/>
<polygon fill="#436f27" stroke="#436f27" points="1242.71,-353.12 1253.04,-349.45 1246.56,-349.43 1249.68,-346.43 1249.68,-346.43 1249.68,-346.43 1246.56,-349.43 1246.81,-342.95 1242.71,-353.12"/>
</g>
<!-- Rent&#45;&gt;ExcpectedCost -->
<g id="edge9" class="edge">
<title>Rent&#45;&gt;ExcpectedCost</title>
<path fill="none" stroke="#3c6728" d="M1020.02,-382.1C839.91,-312.83 766.04,-412.89 588.88,-346 585.54,-344.74 582.23,-343.34 578.94,-341.83"/>
<polygon fill="#3c6728" stroke="#3c6728" points="1019.91,-382.05 1027.54,-389.93 1024.86,-384.02 1028.89,-385.62 1028.89,-385.62 1028.89,-385.62 1024.86,-384.02 1030.86,-381.56 1019.91,-382.05"/>
<polygon fill="#3c6728" stroke="#3c6728" points="578.99,-341.85 572.04,-333.37 574.22,-339.48 570.34,-337.55 570.34,-337.55 570.34,-337.55 574.22,-339.48 568.04,-341.43 578.99,-341.85"/>
</g>
<!-- Rent&#45;&gt;IntermediateStop -->
<g id="edge8" class="edge">
<title>Rent&#45;&gt;IntermediateStop</title>
<path fill="none" stroke="#afb262" d="M1020.36,-382.25C925.66,-342.88 885.69,-384.22 794.88,-346 791.99,-344.79 789.11,-343.48 786.25,-342.08"/>
<polygon fill="#afb262" stroke="#afb262" points="1020.23,-382.19 1027.6,-390.31 1025.12,-384.32 1029.09,-386.05 1029.09,-386.05 1029.09,-386.05 1025.12,-384.32 1031.19,-382.06 1020.23,-382.19"/>
<polygon fill="#afb262" stroke="#afb262" points="786.34,-342.13 779.54,-333.53 781.6,-339.67 777.76,-337.67 777.76,-337.67 777.76,-337.67 781.6,-339.67 775.39,-341.51 786.34,-342.13"/>
</g>
<!-- Rent&#45;&gt;Price -->
<g id="edge12" class="edge">
<title>Rent&#45;&gt;Price</title>
<path fill="none" stroke="#a42f9f" d="M1023.59,-375.38C1015.36,-367.84 1007.07,-360.25 998.91,-352.79"/>
<polygon fill="#a42f9f" stroke="#a42f9f" points="1023.39,-375.19 1027.73,-385.26 1027.33,-378.79 1030.52,-381.72 1030.52,-381.72 1030.52,-381.72 1027.33,-378.79 1033.81,-378.62 1023.39,-375.19"/>
<polygon fill="#a42f9f" stroke="#a42f9f" points="999.08,-352.94 994.74,-342.87 995.14,-349.34 991.95,-346.42 991.95,-346.42 991.95,-346.42 995.14,-349.34 988.66,-349.51 999.08,-352.94"/>
</g>
<!-- Rent&#45;&gt;ProgressingPrice -->
<g id="edge7" class="edge">
<title>Rent&#45;&gt;ProgressingPrice</title>
<path fill="none" stroke="#a85d93" d="M1123.88,-371.94C1123.88,-360.7 1123.88,-349.4 1123.88,-338.62"/>
<polygon fill="#a85d93" stroke="#a85d93" points="1123.88,-371.83 1119.38,-381.83 1123.88,-377.17 1123.88,-381.5 1123.88,-381.5 1123.88,-381.5 1123.88,-377.17 1128.38,-381.83 1123.88,-371.83"/>
<polygon fill="#a85d93" stroke="#a85d93" points="1123.88,-338.8 1128.38,-328.8 1123.88,-333.47 1123.88,-329.14 1123.88,-329.14 1123.88,-329.14 1123.88,-333.47 1119.38,-328.8 1123.88,-338.8"/>
</g>
<!-- Rent&#45;&gt;RegistrationForService -->
<g id="edge10" class="edge">
<title>Rent&#45;&gt;RegistrationForService</title>
<path fill="none" stroke="#15cea0" d="M1227.44,-382.23C1310.78,-347 1347.77,-379.02 1432.32,-345.79"/>
<polygon fill="#15cea0" stroke="#15cea0" points="1227.52,-382.19 1216.56,-382.13 1222.65,-384.35 1218.69,-386.11 1218.69,-386.11 1218.69,-386.11 1222.65,-384.35 1220.21,-390.36 1227.52,-382.19"/>
<polygon fill="#15cea0" stroke="#15cea0" points="1432.2,-345.83 1443.16,-346.17 1437.13,-343.8 1441.13,-342.14 1441.13,-342.14 1441.13,-342.14 1437.13,-343.8 1439.72,-337.86 1432.2,-345.83"/>
</g>
<!-- RequestInService -->
<g id="node20" class="node">
<title>RequestInService</title>
<path fill="none" stroke="black" d="M1866,-408.38C1866,-408.38 2029.75,-408.38 2029.75,-408.38 2035.75,-408.38 2041.75,-414.38 2041.75,-420.38 2041.75,-420.38 2041.75,-515.88 2041.75,-515.88 2041.75,-521.88 2035.75,-527.88 2029.75,-527.88 2029.75,-527.88 1866,-527.88 1866,-527.88 1860,-527.88 1854,-521.88 1854,-515.88 1854,-515.88 1854,-420.38 1854,-420.38 1854,-414.38 1860,-408.38 1866,-408.38"/>
<text text-anchor="middle" x="1947.88" y="-510.57" font-family="Times,serif" font-size="14.00">RequestInService</text>
<polyline fill="none" stroke="black" points="1854,-502.62 2041.75,-502.62"/>
<text text-anchor="start" x="1862" y="-485.32" font-family="Times,serif" font-size="14.00">id :INTEGER</text>
<text text-anchor="start" x="1862" y="-468.07" font-family="Times,serif" font-size="14.00">date :date</text>
<text text-anchor="start" x="1862" y="-450.82" font-family="Times,serif" font-size="14.00">created_at :datetime(6)</text>
<text text-anchor="start" x="1862" y="-433.57" font-family="Times,serif" font-size="14.00">updated_at :datetime(6)</text>
<text text-anchor="start" x="1862" y="-416.32" font-family="Times,serif" font-size="14.00">scooter_id :INTEGER</text>
</g>
<!-- Scooter&#45;&gt;BataryCharge -->
<g id="edge17" class="edge">
<title>Scooter&#45;&gt;BataryCharge</title>
<path fill="none" stroke="#d34860" d="M1850.57,-658.04C1958.3,-646.02 2125.73,-618.06 2256.88,-554.25 2263.84,-550.86 2270.74,-546.91 2277.48,-542.59"/>
<polygon fill="#d34860" stroke="#d34860" points="1850.61,-658.04 1840.18,-654.64 1845.31,-658.61 1841,-659.08 1841,-659.08 1841,-659.08 1845.31,-658.61 1841.16,-663.59 1850.61,-658.04"/>
<polygon fill="#d34860" stroke="#d34860" points="2277.32,-542.7 2288.14,-540.88 2281.76,-539.73 2285.36,-537.32 2285.36,-537.32 2285.36,-537.32 2281.76,-539.73 2283.14,-533.4 2277.32,-542.7"/>
</g>
<!-- Scooter&#45;&gt;Detail -->
<g id="edge19" class="edge">
<title>Scooter&#45;&gt;Detail</title>
<path fill="none" stroke="#9952b2" d="M1633.78,-637.37C1572.57,-618.33 1495.9,-590.33 1432.88,-554.25 1422.73,-548.44 1412.59,-541.62 1402.84,-534.41"/>
<polygon fill="#9952b2" stroke="#9952b2" points="1633.59,-637.31 1641.82,-644.55 1638.69,-638.88 1642.83,-640.15 1642.83,-640.15 1642.83,-640.15 1638.69,-638.88 1644.47,-635.95 1633.59,-637.31"/>
<polygon fill="#9952b2" stroke="#9952b2" points="1402.99,-534.53 1397.74,-524.9 1398.74,-531.3 1395.29,-528.69 1395.29,-528.69 1395.29,-528.69 1398.74,-531.3 1392.3,-532.07 1402.99,-534.53"/>
</g>
<!-- Scooter&#45;&gt;History -->
<g id="edge13" class="edge">
<title>Scooter&#45;&gt;History</title>
<path fill="none" stroke="#b52f46" d="M1633.51,-656.94C1459.97,-640.04 1128.28,-602.56 1020.88,-554.25 1018.33,-553.11 1015.81,-551.88 1013.29,-550.59"/>
<polygon fill="#b52f46" stroke="#b52f46" points="1633.41,-656.93 1642.93,-662.37 1638.72,-657.44 1643.03,-657.86 1643.03,-657.86 1643.03,-657.86 1638.72,-657.44 1643.79,-653.41 1633.41,-656.93"/>
<polygon fill="#b52f46" stroke="#b52f46" points="1013.33,-550.61 1006.74,-541.84 1008.65,-548.03 1004.86,-545.94 1004.86,-545.94 1004.86,-545.94 1008.65,-548.03 1002.4,-549.72 1013.33,-550.61"/>
</g>
<!-- Scooter&#45;&gt;Location -->
<g id="edge15" class="edge">
<title>Scooter&#45;&gt;Location</title>
<path fill="none" stroke="#8e647f" d="M1741.88,-579.94C1741.88,-569.02 1741.88,-557.91 1741.88,-547.15"/>
<polygon fill="#8e647f" stroke="#8e647f" points="1741.88,-580.01 1737.38,-590.01 1741.88,-585.34 1741.88,-589.67 1741.88,-589.67 1741.88,-589.67 1741.88,-585.34 1746.38,-590.01 1741.88,-580.01"/>
<polygon fill="#8e647f" stroke="#8e647f" points="1741.88,-547.28 1746.38,-537.28 1741.88,-541.95 1741.88,-537.62 1741.88,-537.62 1741.88,-537.62 1741.88,-541.95 1737.38,-537.28 1741.88,-547.28"/>
</g>
<!-- Scooter&#45;&gt;Rent -->
<g id="edge16" class="edge">
<title>Scooter&#45;&gt;Rent</title>
<path fill="none" stroke="#f71b1e" d="M1633.18,-658.04C1527.77,-646.28 1365.18,-619.26 1227.21,-554.05"/>
<polygon fill="#f71b1e" stroke="#f71b1e" points="1633.14,-658.04 1642.59,-663.59 1638.44,-658.61 1642.75,-659.08 1642.75,-659.08 1642.75,-659.08 1638.44,-658.61 1643.57,-654.64 1633.14,-658.04"/>
<polygon fill="#f71b1e" stroke="#f71b1e" points="1227.47,-554.18 1220.41,-545.79 1222.66,-551.87 1218.76,-549.99 1218.76,-549.99 1218.76,-549.99 1222.66,-551.87 1216.51,-553.91 1227.47,-554.18"/>
</g>
<!-- Scooter&#45;&gt;RequestInService -->
<g id="edge18" class="edge">
<title>Scooter&#45;&gt;RequestInService</title>
<path fill="none" stroke="#8ab824" d="M1828.88,-583.28C1845.63,-567.21 1862.96,-550.59 1879.04,-535.16"/>
<polygon fill="#8ab824" stroke="#8ab824" points="1828.98,-583.19 1818.65,-586.86 1825.13,-586.88 1822,-589.88 1822,-589.88 1822,-589.88 1825.13,-586.88 1824.88,-593.36 1828.98,-583.19"/>
<polygon fill="#8ab824" stroke="#8ab824" points="1878.87,-535.32 1889.21,-531.64 1882.72,-531.63 1885.85,-528.63 1885.85,-528.63 1885.85,-528.63 1882.72,-531.63 1882.98,-525.15 1878.87,-535.32"/>
</g>
<!-- Security -->
<g id="node24" class="node">
<title>Security</title>
<path fill="none" stroke="black" d="M2072,-408.38C2072,-408.38 2235.75,-408.38 2235.75,-408.38 2241.75,-408.38 2247.75,-414.38 2247.75,-420.38 2247.75,-420.38 2247.75,-515.88 2247.75,-515.88 2247.75,-521.88 2241.75,-527.88 2235.75,-527.88 2235.75,-527.88 2072,-527.88 2072,-527.88 2066,-527.88 2060,-521.88 2060,-515.88 2060,-515.88 2060,-420.38 2060,-420.38 2060,-414.38 2066,-408.38 2072,-408.38"/>
<text text-anchor="middle" x="2153.88" y="-510.57" font-family="Times,serif" font-size="14.00">Security</text>
<polyline fill="none" stroke="black" points="2060,-502.62 2247.75,-502.62"/>
<text text-anchor="start" x="2068" y="-485.32" font-family="Times,serif" font-size="14.00">id :INTEGER</text>
<text text-anchor="start" x="2068" y="-468.07" font-family="Times,serif" font-size="14.00">turn_on :boolean</text>
<text text-anchor="start" x="2068" y="-450.82" font-family="Times,serif" font-size="14.00">created_at :datetime(6)</text>
<text text-anchor="start" x="2068" y="-433.57" font-family="Times,serif" font-size="14.00">updated_at :datetime(6)</text>
<text text-anchor="start" x="2068" y="-416.32" font-family="Times,serif" font-size="14.00">scooter_id :INTEGER</text>
</g>
<!-- Scooter&#45;&gt;Security -->
<g id="edge14" class="edge">
<title>Scooter&#45;&gt;Security</title>
<path fill="none" stroke="#27c4df" d="M1849.97,-637.37C1911.18,-618.33 1987.85,-590.33 2050.88,-554.25 2061.02,-548.44 2071.16,-541.62 2080.91,-534.41"/>
<polygon fill="#27c4df" stroke="#27c4df" points="1850.16,-637.31 1839.28,-635.95 1845.06,-638.88 1840.92,-640.15 1840.92,-640.15 1840.92,-640.15 1845.06,-638.88 1841.93,-644.55 1850.16,-637.31"/>
<polygon fill="#27c4df" stroke="#27c4df" points="2080.76,-534.53 2091.45,-532.07 2085.01,-531.3 2088.46,-528.69 2088.46,-528.69 2088.46,-528.69 2085.01,-531.3 2086.01,-524.9 2080.76,-534.53"/>
</g>
<!-- Stantion -->
<g id="node27" class="node">
<title>Stantion</title>
<path fill="none" stroke="black" d="M1750.62,-781.75C1750.62,-781.75 1963.12,-781.75 1963.12,-781.75 1969.12,-781.75 1975.12,-787.75 1975.12,-793.75 1975.12,-793.75 1975.12,-923.75 1975.12,-923.75 1975.12,-929.75 1969.12,-935.75 1963.12,-935.75 1963.12,-935.75 1750.62,-935.75 1750.62,-935.75 1744.62,-935.75 1738.62,-929.75 1738.62,-923.75 1738.62,-923.75 1738.62,-793.75 1738.62,-793.75 1738.62,-787.75 1744.62,-781.75 1750.62,-781.75"/>
<text text-anchor="middle" x="1856.88" y="-918.45" font-family="Times,serif" font-size="14.00">Stantion</text>
<polyline fill="none" stroke="black" points="1738.62,-910.5 1975.12,-910.5"/>
<text text-anchor="start" x="1746.62" y="-893.2" font-family="Times,serif" font-size="14.00">id :INTEGER</text>
<text text-anchor="start" x="1746.62" y="-875.95" font-family="Times,serif" font-size="14.00">adres :varchar</text>
<text text-anchor="start" x="1746.62" y="-858.7" font-family="Times,serif" font-size="14.00">capacity :varchar</text>
<text text-anchor="start" x="1746.62" y="-841.45" font-family="Times,serif" font-size="14.00">number_of_scooters :INTEGER</text>
<text text-anchor="start" x="1746.62" y="-824.2" font-family="Times,serif" font-size="14.00">created_at :datetime(6)</text>
<text text-anchor="start" x="1746.62" y="-806.95" font-family="Times,serif" font-size="14.00">updated_at :datetime(6)</text>
<text text-anchor="start" x="1746.62" y="-789.7" font-family="Times,serif" font-size="14.00">scooter_id :INTEGER</text>
</g>
<!-- Stantion&#45;&gt;Scooter -->
<g id="edge20" class="edge">
<title>Stantion&#45;&gt;Scooter</title>
<path fill="none" stroke="#bd04f1" d="M1805.1,-772.65C1801.25,-766.33 1797.37,-759.95 1793.52,-753.63"/>
<polygon fill="#bd04f1" stroke="#bd04f1" points="1805.06,-772.59 1806.41,-783.47 1807.83,-777.15 1810.08,-780.85 1810.08,-780.85 1810.08,-780.85 1807.83,-777.15 1814.1,-778.8 1805.06,-772.59"/>
<polygon fill="#bd04f1" stroke="#bd04f1" points="1793.68,-753.89 1792.32,-743 1790.9,-749.33 1788.65,-745.63 1788.65,-745.63 1788.65,-745.63 1790.9,-749.33 1784.63,-747.68 1793.68,-753.89"/>
</g>
<!-- User -->
<g id="node28" class="node">
<title>User</title>
<path fill="none" stroke="black" d="M521,-590.75C521,-590.75 696.75,-590.75 696.75,-590.75 702.75,-590.75 708.75,-596.75 708.75,-602.75 708.75,-602.75 708.75,-732.75 708.75,-732.75 708.75,-738.75 702.75,-744.75 696.75,-744.75 696.75,-744.75 521,-744.75 521,-744.75 515,-744.75 509,-738.75 509,-732.75 509,-732.75 509,-602.75 509,-602.75 509,-596.75 515,-590.75 521,-590.75"/>
<text text-anchor="middle" x="608.88" y="-727.45" font-family="Times,serif" font-size="14.00">User</text>
<polyline fill="none" stroke="black" points="509,-719.5 708.75,-719.5"/>
<text text-anchor="start" x="517" y="-702.2" font-family="Times,serif" font-size="14.00">id :INTEGER</text>
<text text-anchor="start" x="517" y="-684.95" font-family="Times,serif" font-size="14.00">name :varchar</text>
<text text-anchor="start" x="517" y="-667.7" font-family="Times,serif" font-size="14.00">second_name :varchar</text>
<text text-anchor="start" x="517" y="-650.45" font-family="Times,serif" font-size="14.00">mail :varchar</text>
<text text-anchor="start" x="517" y="-633.2" font-family="Times,serif" font-size="14.00">phone_number :INTEGER</text>
<text text-anchor="start" x="517" y="-615.95" font-family="Times,serif" font-size="14.00">created_at :datetime(6)</text>
<text text-anchor="start" x="517" y="-598.7" font-family="Times,serif" font-size="14.00">updated_at :datetime(6)</text>
</g>
<!-- User&#45;&gt;Alert -->
<g id="edge24" class="edge">
<title>User&#45;&gt;Alert</title>
<path fill="none" stroke="#84bf12" d="M564.28,-581.19C558.2,-569.52 551.98,-557.59 545.98,-546.08"/>
<polygon fill="#84bf12" stroke="#84bf12" points="564.28,-581.18 564.91,-592.13 566.74,-585.91 568.74,-589.75 568.74,-589.75 568.74,-589.75 566.74,-585.91 572.89,-587.97 564.28,-581.18"/>
<polygon fill="#84bf12" stroke="#84bf12" points="546,-546.11 545.37,-535.17 543.53,-541.38 541.53,-537.54 541.53,-537.54 541.53,-537.54 543.53,-541.38 537.39,-539.32 546,-546.11"/>
</g>
<!-- User&#45;&gt;Feedback -->
<g id="edge22" class="edge">
<title>User&#45;&gt;Feedback</title>
<path fill="none" stroke="#98935f" d="M499.7,-612.15C467.74,-594.84 433.25,-574.82 402.88,-554.25 397.64,-550.71 392.36,-546.96 387.09,-543.08"/>
<polygon fill="#98935f" stroke="#98935f" points="499.54,-612.06 506.21,-620.76 504.23,-614.59 508.05,-616.64 508.05,-616.64 508.05,-616.64 504.23,-614.59 510.47,-612.83 499.54,-612.06"/>
<polygon fill="#98935f" stroke="#98935f" points="387.11,-543.09 381.81,-533.49 382.84,-539.89 379.38,-537.3 379.38,-537.3 379.38,-537.3 382.84,-539.89 376.41,-540.7 387.11,-543.09"/>
</g>
<!-- User&#45;&gt;History -->
<g id="edge23" class="edge">
<title>User&#45;&gt;History</title>
<path fill="none" stroke="#d664d8" d="M718.05,-612.15C750.01,-594.84 784.5,-574.82 814.88,-554.25 816.29,-553.29 817.72,-552.31 819.14,-551.32"/>
<polygon fill="#d664d8" stroke="#d664d8" points="718.21,-612.06 707.28,-612.83 713.52,-614.59 709.7,-616.64 709.7,-616.64 709.7,-616.64 713.52,-614.59 711.54,-620.76 718.21,-612.06"/>
<polygon fill="#d664d8" stroke="#d664d8" points="818.9,-551.49 829.66,-549.37 823.25,-548.4 826.78,-545.9 826.78,-545.9 826.78,-545.9 823.25,-548.4 824.45,-542.03 818.9,-551.49"/>
</g>
<!-- User&#45;&gt;Purchase -->
<g id="edge21" class="edge">
<title>User&#45;&gt;Purchase</title>
<path fill="none" stroke="#68c9a3" d="M653.47,-581.19C659.55,-569.52 665.77,-557.59 671.77,-546.08"/>
<polygon fill="#68c9a3" stroke="#68c9a3" points="653.47,-581.18 644.86,-587.97 651.01,-585.91 649.01,-589.75 649.01,-589.75 649.01,-589.75 651.01,-585.91 652.84,-592.13 653.47,-581.18"/>
<polygon fill="#68c9a3" stroke="#68c9a3" points="671.75,-546.11 680.36,-539.32 674.22,-541.38 676.22,-537.54 676.22,-537.54 676.22,-537.54 674.22,-541.38 672.38,-535.17 671.75,-546.11"/>
</g>
<!-- User&#45;&gt;Rating -->
<g id="edge26" class="edge">
<title>User&#45;&gt;Rating</title>
<path fill="none" stroke="#cf5ac3" d="M498.79,-649.81C413.01,-633.58 292.79,-604.01 196.88,-554.25 194.62,-553.08 192.37,-551.86 190.14,-550.58"/>
<polygon fill="#cf5ac3" stroke="#cf5ac3" points="498.65,-649.79 507.66,-656.04 503.9,-650.76 508.15,-651.56 508.15,-651.56 508.15,-651.56 503.9,-650.76 509.31,-647.19 498.65,-649.79"/>
<polygon fill="#cf5ac3" stroke="#cf5ac3" points="190.42,-550.75 184.14,-541.76 185.84,-548.01 182.12,-545.79 182.12,-545.79 182.12,-545.79 185.84,-548.01 179.52,-549.48 190.42,-550.75"/>
</g>
<!-- User&#45;&gt;Rent -->
<g id="edge25" class="edge">
<title>User&#45;&gt;Rent</title>
<path fill="none" stroke="#be57d3" d="M718.96,-649.81C802.22,-634.05 917.95,-605.73 1020.55,-554.07"/>
<polygon fill="#be57d3" stroke="#be57d3" points="719.1,-649.79 708.44,-647.19 713.85,-650.76 709.6,-651.56 709.6,-651.56 709.6,-651.56 713.85,-650.76 710.09,-656.04 719.1,-649.79"/>
<polygon fill="#be57d3" stroke="#be57d3" points="1020.6,-554.04 1031.56,-553.48 1025.35,-551.61 1029.21,-549.63 1029.21,-549.63 1029.21,-549.63 1025.35,-551.61 1027.45,-545.47 1020.6,-554.04"/>
</g>
<!-- Worker -->
<g id="node29" class="node">
<title>Worker</title>
<path fill="none" stroke="black" d="M1454,-408.38C1454,-408.38 1617.75,-408.38 1617.75,-408.38 1623.75,-408.38 1629.75,-414.38 1629.75,-420.38 1629.75,-420.38 1629.75,-515.88 1629.75,-515.88 1629.75,-521.88 1623.75,-527.88 1617.75,-527.88 1617.75,-527.88 1454,-527.88 1454,-527.88 1448,-527.88 1442,-521.88 1442,-515.88 1442,-515.88 1442,-420.38 1442,-420.38 1442,-414.38 1448,-408.38 1454,-408.38"/>
<text text-anchor="middle" x="1535.88" y="-510.57" font-family="Times,serif" font-size="14.00">Worker</text>
<polyline fill="none" stroke="black" points="1442,-502.62 1629.75,-502.62"/>
<text text-anchor="start" x="1450" y="-485.32" font-family="Times,serif" font-size="14.00">id :INTEGER</text>
<text text-anchor="start" x="1450" y="-468.07" font-family="Times,serif" font-size="14.00">name :varchar</text>
<text text-anchor="start" x="1450" y="-450.82" font-family="Times,serif" font-size="14.00">price :INTEGER</text>
<text text-anchor="start" x="1450" y="-433.57" font-family="Times,serif" font-size="14.00">created_at :datetime(6)</text>
<text text-anchor="start" x="1450" y="-416.32" font-family="Times,serif" font-size="14.00">updated_at :datetime(6)</text>
</g>
<!-- Worker&#45;&gt;RegistrationForService -->
<g id="edge27" class="edge">
<title>Worker&#45;&gt;RegistrationForService</title>
<path fill="none" stroke="#d33528" d="M1535.88,-397.81C1535.88,-384.28 1535.88,-369.93 1535.88,-355.93"/>
<polygon fill="#d33528" stroke="#d33528" points="1535.88,-397.76 1531.38,-407.76 1535.88,-403.1 1535.88,-407.43 1535.88,-407.43 1535.88,-407.43 1535.88,-403.1 1540.38,-407.76 1535.88,-397.76"/>
<polygon fill="#d33528" stroke="#d33528" points="1535.88,-356.14 1540.38,-346.14 1535.88,-350.8 1535.88,-346.47 1535.88,-346.47 1535.88,-346.47 1535.88,-350.8 1531.38,-346.14 1535.88,-356.14"/>
</g>
<!-- WorkerTime -->
<g id="node30" class="node">
<title>WorkerTime</title>
<path fill="none" stroke="black" d="M1660,-191.5C1660,-191.5 1823.75,-191.5 1823.75,-191.5 1829.75,-191.5 1835.75,-197.5 1835.75,-203.5 1835.75,-203.5 1835.75,-333.5 1835.75,-333.5 1835.75,-339.5 1829.75,-345.5 1823.75,-345.5 1823.75,-345.5 1660,-345.5 1660,-345.5 1654,-345.5 1648,-339.5 1648,-333.5 1648,-333.5 1648,-203.5 1648,-203.5 1648,-197.5 1654,-191.5 1660,-191.5"/>
<text text-anchor="middle" x="1741.88" y="-328.2" font-family="Times,serif" font-size="14.00">WorkerTime</text>
<polyline fill="none" stroke="black" points="1648,-320.25 1835.75,-320.25"/>
<text text-anchor="start" x="1656" y="-302.95" font-family="Times,serif" font-size="14.00">id :INTEGER</text>
<text text-anchor="start" x="1656" y="-285.7" font-family="Times,serif" font-size="14.00">date :date</text>
<text text-anchor="start" x="1656" y="-268.45" font-family="Times,serif" font-size="14.00">time_start :time</text>
<text text-anchor="start" x="1656" y="-251.2" font-family="Times,serif" font-size="14.00">time_end :time</text>
<text text-anchor="start" x="1656" y="-233.95" font-family="Times,serif" font-size="14.00">created_at :datetime(6)</text>
<text text-anchor="start" x="1656" y="-216.7" font-family="Times,serif" font-size="14.00">updated_at :datetime(6)</text>
<text text-anchor="start" x="1656" y="-199.45" font-family="Times,serif" font-size="14.00">worker_id :INTEGER</text>
</g>
<!-- Worker&#45;&gt;WorkerTime -->
<g id="edge28" class="edge">
<title>Worker&#45;&gt;WorkerTime</title>
<path fill="none" stroke="#172277" d="M1604.67,-401.12C1620.85,-385.6 1638.3,-368.86 1655.16,-352.69"/>
<polygon fill="#172277" stroke="#172277" points="1604.86,-400.94 1594.53,-404.62 1601.01,-404.64 1597.89,-407.64 1597.89,-407.64 1597.89,-407.64 1601.01,-404.64 1600.76,-411.11 1604.86,-400.94"/>
<polygon fill="#172277" stroke="#172277" points="1654.88,-352.96 1665.21,-349.28 1658.73,-349.26 1661.86,-346.27 1661.86,-346.27 1661.86,-346.27 1658.73,-349.26 1658.98,-342.79 1654.88,-352.96"/>
</g>
</g>
</svg>
