<?xml version="1.0" encoding="UTF-8" standalone="no"?>
<!DOCTYPE svg PUBLIC "-//W3C//DTD SVG 1.1//EN"
 "http://www.w3.org/Graphics/SVG/1.1/DTD/svg11.dtd">
<!-- Generated by graphviz version 9.0.0 (0)
 -->
<!-- Title: models_diagram Pages: 1 -->
<svg width="1630pt" height="387pt"
 viewBox="0.00 0.00 1630.13 386.50" xmlns="http://www.w3.org/2000/svg" xmlns:xlink="http://www.w3.org/1999/xlink">
<g id="graph0" class="graph" transform="scale(1 1) rotate(0) translate(4 382.5)">
<title>models_diagram</title>
<polygon fill="none" stroke="none" points="-4,4 -4,-382.5 1626.13,-382.5 1626.13,4 -4,4"/>
<!-- _diagram_info -->
<g id="node1" class="node">
<title>_diagram_info</title>
<text text-anchor="start" x="649.81" y="-362.15" font-family="Times,serif" font-size="13.00">Models diagram</text>
<text text-anchor="start" x="649.81" y="-345.65" font-family="Times,serif" font-size="13.00">Date: Oct 06 2023 &#45; 15:35</text>
<text text-anchor="start" x="649.81" y="-329.15" font-family="Times,serif" font-size="13.00">Migration version: 20231006122230</text>
<text text-anchor="start" x="649.81" y="-312.65" font-family="Times,serif" font-size="13.00">Generated by RailRoady 1.6.0</text>
<text text-anchor="start" x="649.81" y="-296.15" font-family="Times,serif" font-size="13.00">http://railroady.prestonlee.com</text>
</g>
<!-- Alert -->
<g id="node2" class="node">
<title>Alert</title>
<ellipse fill="none" stroke="black" cx="304.93" cy="-162" rx="35.95" ry="18"/>
<text text-anchor="middle" x="304.93" y="-157.32" font-family="Times,serif" font-size="14.00">Alert</text>
</g>
<!-- ApplicationRecord -->
<g id="node3" class="node">
<title>ApplicationRecord</title>
<ellipse fill="none" stroke="black" cx="1286.93" cy="-333.25" rx="102.77" ry="18"/>
<text text-anchor="middle" x="1286.93" y="-328.57" font-family="Times,serif" font-size="14.00">ApplicationRecord</text>
</g>
<!-- BataryCharge -->
<g id="node4" class="node">
<title>BataryCharge</title>
<ellipse fill="none" stroke="black" cx="1540.93" cy="-162" rx="81.2" ry="18"/>
<text text-anchor="middle" x="1540.93" y="-157.32" font-family="Times,serif" font-size="14.00">BataryCharge</text>
</g>
<!-- Detail -->
<g id="node5" class="node">
<title>Detail</title>
<ellipse fill="none" stroke="black" cx="819.93" cy="-162" rx="41.21" ry="18"/>
<text text-anchor="middle" x="819.93" y="-157.32" font-family="Times,serif" font-size="14.00">Detail</text>
</g>
<!-- Discount -->
<g id="node6" class="node">
<title>Discount</title>
<ellipse fill="none" stroke="black" cx="768.93" cy="-90" rx="55.42" ry="18"/>
<text text-anchor="middle" x="768.93" y="-85.33" font-family="Times,serif" font-size="14.00">Discount</text>
</g>
<!-- ExcpectedCost -->
<g id="node7" class="node">
<title>ExcpectedCost</title>
<ellipse fill="none" stroke="black" cx="85.93" cy="-90" rx="85.93" ry="18"/>
<text text-anchor="middle" x="85.93" y="-85.33" font-family="Times,serif" font-size="14.00">ExcpectedCost</text>
</g>
<!-- Feedback -->
<g id="node8" class="node">
<title>Feedback</title>
<ellipse fill="none" stroke="black" cx="191.93" cy="-162" rx="58.57" ry="18"/>
<text text-anchor="middle" x="191.93" y="-157.32" font-family="Times,serif" font-size="14.00">Feedback</text>
</g>
<!-- History -->
<g id="node9" class="node">
<title>History</title>
<ellipse fill="none" stroke="black" cx="539.93" cy="-162" rx="48.58" ry="18"/>
<text text-anchor="middle" x="539.93" y="-157.32" font-family="Times,serif" font-size="14.00">History</text>
</g>
<!-- Insurance -->
<g id="node10" class="node">
<title>Insurance</title>
<ellipse fill="none" stroke="black" cx="978.93" cy="-333.25" rx="60.68" ry="18"/>
<text text-anchor="middle" x="978.93" y="-328.57" font-family="Times,serif" font-size="14.00">Insurance</text>
</g>
<!-- Scooter -->
<g id="node22" class="node">
<title>Scooter</title>
<ellipse fill="none" stroke="black" cx="1045.93" cy="-234" rx="49.63" ry="18"/>
<text text-anchor="middle" x="1045.93" y="-229.32" font-family="Times,serif" font-size="14.00">Scooter</text>
</g>
<!-- Insurance&#45;&gt;Scooter -->
<g id="edge1" class="edge">
<title>Insurance&#45;&gt;Scooter</title>
<path fill="none" stroke="#8764d0" d="M996.49,-306.76C1006.4,-292.38 1018.74,-274.47 1028.61,-260.14"/>
<polygon fill="#8764d0" stroke="#8764d0" points="996.46,-306.8 987.09,-312.48 993.44,-311.19 990.98,-314.76 990.98,-314.76 990.98,-314.76 993.44,-311.19 994.5,-317.59 996.46,-306.8"/>
<polygon fill="#8764d0" stroke="#8764d0" points="1028.53,-260.26 1037.91,-254.57 1031.56,-255.86 1034.01,-252.3 1034.01,-252.3 1034.01,-252.3 1031.56,-255.86 1030.5,-249.47 1028.53,-260.26"/>
</g>
<!-- IntermediateStop -->
<g id="node11" class="node">
<title>IntermediateStop</title>
<ellipse fill="none" stroke="black" cx="289.93" cy="-90" rx="99.61" ry="18"/>
<text text-anchor="middle" x="289.93" y="-85.33" font-family="Times,serif" font-size="14.00">IntermediateStop</text>
</g>
<!-- Location -->
<g id="node12" class="node">
<title>Location</title>
<ellipse fill="none" stroke="black" cx="1045.93" cy="-162" rx="53.84" ry="18"/>
<text text-anchor="middle" x="1045.93" y="-157.32" font-family="Times,serif" font-size="14.00">Location</text>
</g>
<!-- Price -->
<g id="node13" class="node">
<title>Price</title>
<ellipse fill="none" stroke="black" cx="444.93" cy="-90" rx="37" ry="18"/>
<text text-anchor="middle" x="444.93" y="-85.33" font-family="Times,serif" font-size="14.00">Price</text>
</g>
<!-- ProgressingPrice -->
<g id="node14" class="node">
<title>ProgressingPrice</title>
<ellipse fill="none" stroke="black" cx="597.93" cy="-90" rx="97.51" ry="18"/>
<text text-anchor="middle" x="597.93" y="-85.33" font-family="Times,serif" font-size="14.00">ProgressingPrice</text>
</g>
<!-- Purchase -->
<g id="node15" class="node">
<title>Purchase</title>
<ellipse fill="none" stroke="black" cx="415.93" cy="-162" rx="57.52" ry="18"/>
<text text-anchor="middle" x="415.93" y="-157.32" font-family="Times,serif" font-size="14.00">Purchase</text>
</g>
<!-- Rating -->
<g id="node16" class="node">
<title>Rating</title>
<ellipse fill="none" stroke="black" cx="70.93" cy="-162" rx="44.37" ry="18"/>
<text text-anchor="middle" x="70.93" y="-157.32" font-family="Times,serif" font-size="14.00">Rating</text>
</g>
<!-- RegistrationForService -->
<g id="node17" class="node">
<title>RegistrationForService</title>
<ellipse fill="none" stroke="black" cx="969.93" cy="-90" rx="127.49" ry="18"/>
<text text-anchor="middle" x="969.93" y="-85.33" font-family="Times,serif" font-size="14.00">RegistrationForService</text>
</g>
<!-- ReportsAboutWork -->
<g id="node19" class="node">
<title>ReportsAboutWork</title>
<ellipse fill="none" stroke="black" cx="571.93" cy="-18" rx="105.92" ry="18"/>
<text text-anchor="middle" x="571.93" y="-13.32" font-family="Times,serif" font-size="14.00">ReportsAboutWork</text>
</g>
<!-- RegistrationForService&#45;&gt;ReportsAboutWork -->
<g id="edge2" class="edge">
<title>RegistrationForService&#45;&gt;ReportsAboutWork</title>
<path fill="none" stroke="#0bb356" d="M882.34,-73.59C814.21,-61.61 720.39,-45.11 653.77,-33.39"/>
<polygon fill="#0bb356" stroke="#0bb356" points="882.07,-73.55 891.14,-79.71 887.32,-74.47 891.59,-75.22 891.59,-75.22 891.59,-75.22 887.32,-74.47 892.7,-70.85 882.07,-73.55"/>
<polygon fill="#0bb356" stroke="#0bb356" points="653.91,-33.42 644.84,-27.25 648.65,-32.49 644.39,-31.74 644.39,-31.74 644.39,-31.74 648.65,-32.49 643.28,-36.12 653.91,-33.42"/>
</g>
<!-- RequestStatus -->
<g id="node21" class="node">
<title>RequestStatus</title>
<ellipse fill="none" stroke="black" cx="780.93" cy="-18" rx="84.88" ry="18"/>
<text text-anchor="middle" x="780.93" y="-13.32" font-family="Times,serif" font-size="14.00">RequestStatus</text>
</g>
<!-- RegistrationForService&#45;&gt;RequestStatus -->
<g id="edge3" class="edge">
<title>RegistrationForService&#45;&gt;RequestStatus</title>
<path fill="none" stroke="#fa6bc3" d="M916.61,-69.25C889.99,-59.39 857.96,-47.53 831.7,-37.8"/>
<polygon fill="#fa6bc3" stroke="#fa6bc3" points="916.4,-69.18 924.22,-76.87 921.41,-71.03 925.47,-72.53 925.47,-72.53 925.47,-72.53 921.41,-71.03 927.35,-68.43 916.4,-69.18"/>
<polygon fill="#fa6bc3" stroke="#fa6bc3" points="831.63,-37.78 823.82,-30.09 826.63,-35.93 822.57,-34.42 822.57,-34.42 822.57,-34.42 826.63,-35.93 820.69,-38.53 831.63,-37.78"/>
</g>
<!-- ScooterSuplier -->
<g id="node23" class="node">
<title>ScooterSuplier</title>
<ellipse fill="none" stroke="black" cx="969.93" cy="-18" rx="85.93" ry="18"/>
<text text-anchor="middle" x="969.93" y="-13.32" font-family="Times,serif" font-size="14.00">ScooterSuplier</text>
</g>
<!-- RegistrationForService&#45;&gt;ScooterSuplier -->
<g id="edge5" class="edge">
<title>RegistrationForService&#45;&gt;ScooterSuplier</title>
<path fill="none" stroke="#cb089f" d="M969.93,-61.38C969.93,-56.45 969.93,-51.31 969.93,-46.39"/>
<polygon fill="#cb089f" stroke="#cb089f" points="969.93,-61.36 965.43,-71.36 969.93,-66.7 969.93,-71.03 969.93,-71.03 969.93,-71.03 969.93,-66.7 974.43,-71.36 969.93,-61.36"/>
<polygon fill="#cb089f" stroke="#cb089f" points="969.93,-46.44 974.43,-36.44 969.93,-41.1 969.93,-36.77 969.93,-36.77 969.93,-36.77 969.93,-41.1 965.43,-36.44 969.93,-46.44"/>
</g>
<!-- ServiceCost -->
<g id="node25" class="node">
<title>ServiceCost</title>
<ellipse fill="none" stroke="black" cx="1144.93" cy="-18" rx="71.2" ry="18"/>
<text text-anchor="middle" x="1144.93" y="-13.32" font-family="Times,serif" font-size="14.00">ServiceCost</text>
</g>
<!-- RegistrationForService&#45;&gt;ServiceCost -->
<g id="edge4" class="edge">
<title>RegistrationForService&#45;&gt;ServiceCost</title>
<path fill="none" stroke="#593c91" d="M1020.57,-68.75C1045.13,-58.92 1074.45,-47.19 1098.44,-37.6"/>
<polygon fill="#593c91" stroke="#593c91" points="1020.56,-68.75 1009.6,-68.29 1015.6,-70.73 1011.58,-72.34 1011.58,-72.34 1011.58,-72.34 1015.6,-70.73 1012.94,-76.64 1020.56,-68.75"/>
<polygon fill="#593c91" stroke="#593c91" points="1098.43,-37.6 1109.39,-38.06 1103.39,-35.62 1107.41,-34.01 1107.41,-34.01 1107.41,-34.01 1103.39,-35.62 1106.05,-29.71 1098.43,-37.6"/>
</g>
<!-- SparePart -->
<g id="node26" class="node">
<title>SparePart</title>
<ellipse fill="none" stroke="black" cx="1295.93" cy="-18" rx="61.73" ry="18"/>
<text text-anchor="middle" x="1295.93" y="-13.32" font-family="Times,serif" font-size="14.00">SparePart</text>
</g>
<!-- RegistrationForService&#45;&gt;SparePart -->
<g id="edge6" class="edge">
<title>RegistrationForService&#45;&gt;SparePart</title>
<path fill="none" stroke="#d409bc" d="M1051.63,-72.67C1101.73,-62.5 1167.13,-48.92 1224.93,-36 1229.71,-34.93 1234.65,-33.8 1239.61,-32.65"/>
<polygon fill="#d409bc" stroke="#d409bc" points="1051.63,-72.67 1040.93,-70.25 1046.4,-73.73 1042.16,-74.59 1042.16,-74.59 1042.16,-74.59 1046.4,-73.73 1042.72,-79.07 1051.63,-72.67"/>
<polygon fill="#d409bc" stroke="#d409bc" points="1239.7,-32.63 1250.47,-34.72 1244.9,-31.41 1249.11,-30.42 1249.11,-30.42 1249.11,-30.42 1244.9,-31.41 1248.41,-25.96 1239.7,-32.63"/>
</g>
<!-- Rent -->
<g id="node18" class="node">
<title>Rent</title>
<ellipse fill="none" stroke="black" cx="640.93" cy="-162" rx="34.9" ry="18"/>
<text text-anchor="middle" x="640.93" y="-157.32" font-family="Times,serif" font-size="14.00">Rent</text>
</g>
<!-- Rent&#45;&gt;Discount -->
<g id="edge11" class="edge">
<title>Rent&#45;&gt;Discount</title>
<path fill="none" stroke="#b00115" d="M673.33,-143.28C691.36,-133.42 713.88,-121.11 732.52,-110.91"/>
<polygon fill="#b00115" stroke="#b00115" points="673.48,-143.2 662.54,-144.05 668.8,-145.76 665,-147.84 665,-147.84 665,-147.84 668.8,-145.76 666.86,-151.95 673.48,-143.2"/>
<polygon fill="#b00115" stroke="#b00115" points="732.54,-110.9 743.47,-110.05 737.22,-108.34 741.02,-106.27 741.02,-106.27 741.02,-106.27 737.22,-108.34 739.15,-102.16 732.54,-110.9"/>
</g>
<!-- Rent&#45;&gt;ExcpectedCost -->
<g id="edge9" class="edge">
<title>Rent&#45;&gt;ExcpectedCost</title>
<path fill="none" stroke="#1938a7" d="M605.61,-146.11C603.04,-145.31 600.46,-144.6 597.93,-144 416.86,-101.35 365.35,-132.41 180.93,-108 173.42,-107.01 165.61,-105.83 157.82,-104.58"/>
<polygon fill="#1938a7" stroke="#1938a7" points="605.64,-146.12 613.61,-153.65 610.68,-147.87 614.77,-149.29 614.77,-149.29 614.77,-149.29 610.68,-147.87 616.56,-145.14 605.64,-146.12"/>
<polygon fill="#1938a7" stroke="#1938a7" points="157.83,-104.58 148.71,-98.5 152.57,-103.7 148.3,-102.99 148.3,-102.99 148.3,-102.99 152.57,-103.7 147.23,-107.38 157.83,-104.58"/>
</g>
<!-- Rent&#45;&gt;IntermediateStop -->
<g id="edge8" class="edge">
<title>Rent&#45;&gt;IntermediateStop</title>
<path fill="none" stroke="#410cb6" d="M605.07,-146.2C602.68,-145.4 600.28,-144.66 597.93,-144 576.55,-138 456.61,-118.01 372.88,-104.37"/>
<polygon fill="#410cb6" stroke="#410cb6" points="605.12,-146.21 613.01,-153.82 610.14,-148.01 614.22,-149.47 614.22,-149.47 614.22,-149.47 610.14,-148.01 616.05,-145.35 605.12,-146.21"/>
<polygon fill="#410cb6" stroke="#410cb6" points="372.8,-104.36 363.65,-98.31 367.53,-103.5 363.26,-102.8 363.26,-102.8 363.26,-102.8 367.53,-103.5 362.21,-107.19 372.8,-104.36"/>
</g>
<!-- Rent&#45;&gt;Price -->
<g id="edge12" class="edge">
<title>Rent&#45;&gt;Price</title>
<path fill="none" stroke="#d0cf94" d="M604.49,-146.44C602.27,-145.6 600.08,-144.78 597.93,-144 550.81,-126.77 538.25,-124.7 490.93,-108 488.47,-107.13 485.94,-106.23 483.4,-105.31"/>
<polygon fill="#d0cf94" stroke="#d0cf94" points="604.53,-146.46 612.25,-154.25 609.51,-148.38 613.55,-149.93 613.55,-149.93 613.55,-149.93 609.51,-148.38 615.48,-145.85 604.53,-146.46"/>
<polygon fill="#d0cf94" stroke="#d0cf94" points="483.3,-105.28 475.45,-97.63 478.29,-103.45 474.22,-101.97 474.22,-101.97 474.22,-101.97 478.29,-103.45 472.37,-106.08 483.3,-105.28"/>
</g>
<!-- Rent&#45;&gt;ProgressingPrice -->
<g id="edge7" class="edge">
<title>Rent&#45;&gt;ProgressingPrice</title>
<path fill="none" stroke="#3eb0dc" d="M625.35,-135.63C621.55,-129.45 617.48,-122.83 613.68,-116.63"/>
<polygon fill="#3eb0dc" stroke="#3eb0dc" points="625.33,-135.61 626.73,-146.48 628.12,-140.15 630.39,-143.84 630.39,-143.84 630.39,-143.84 628.12,-140.15 634.4,-141.77 625.33,-135.61"/>
<polygon fill="#3eb0dc" stroke="#3eb0dc" points="613.76,-116.76 612.36,-105.89 610.96,-112.22 608.7,-108.53 608.7,-108.53 608.7,-108.53 610.96,-112.22 604.69,-110.6 613.76,-116.76"/>
</g>
<!-- Rent&#45;&gt;RegistrationForService -->
<g id="edge10" class="edge">
<title>Rent&#45;&gt;RegistrationForService</title>
<path fill="none" stroke="#baa7c0" d="M682.88,-152.08C735.26,-140.93 825.95,-121.63 891.4,-107.71"/>
<polygon fill="#baa7c0" stroke="#baa7c0" points="682.88,-152.07 672.17,-149.75 677.67,-153.18 673.43,-154.09 673.43,-154.09 673.43,-154.09 677.67,-153.18 674.04,-158.56 682.88,-152.07"/>
<polygon fill="#baa7c0" stroke="#baa7c0" points="891.16,-107.76 901.88,-110.08 896.38,-106.65 900.61,-105.75 900.61,-105.75 900.61,-105.75 896.38,-106.65 900,-101.28 891.16,-107.76"/>
</g>
<!-- RequestInService -->
<g id="node20" class="node">
<title>RequestInService</title>
<ellipse fill="none" stroke="black" cx="1216.93" cy="-162" rx="99.61" ry="18"/>
<text text-anchor="middle" x="1216.93" y="-157.32" font-family="Times,serif" font-size="14.00">RequestInService</text>
</g>
<!-- Scooter&#45;&gt;BataryCharge -->
<g id="edge17" class="edge">
<title>Scooter&#45;&gt;BataryCharge</title>
<path fill="none" stroke="#992476" d="M1103.16,-226.48C1181.58,-217.33 1326.74,-199.57 1449.93,-180 1456.92,-178.89 1464.19,-177.66 1471.44,-176.38"/>
<polygon fill="#992476" stroke="#992476" points="1103.28,-226.47 1092.83,-223.15 1097.98,-227.09 1093.68,-227.59 1093.68,-227.59 1093.68,-227.59 1097.98,-227.09 1093.87,-232.09 1103.28,-226.47"/>
<polygon fill="#992476" stroke="#992476" points="1471.12,-176.44 1481.76,-179.11 1476.37,-175.5 1480.63,-174.74 1480.63,-174.74 1480.63,-174.74 1476.37,-175.5 1480.17,-170.25 1471.12,-176.44"/>
</g>
<!-- Scooter&#45;&gt;Detail -->
<g id="edge19" class="edge">
<title>Scooter&#45;&gt;Detail</title>
<path fill="none" stroke="#acc56f" d="M998.43,-219.19C962.93,-208.75 913.26,-193.89 869.93,-180 867.15,-179.11 864.28,-178.17 861.4,-177.22"/>
<polygon fill="#acc56f" stroke="#acc56f" points="998.13,-219.1 1006.46,-226.23 1003.25,-220.6 1007.4,-221.82 1007.4,-221.82 1007.4,-221.82 1003.25,-220.6 1008.99,-217.6 998.13,-219.1"/>
<polygon fill="#acc56f" stroke="#acc56f" points="861.42,-177.23 853.36,-169.8 856.36,-175.54 852.25,-174.17 852.25,-174.17 852.25,-174.17 856.36,-175.54 850.51,-178.34 861.42,-177.23"/>
</g>
<!-- Scooter&#45;&gt;History -->
<g id="edge13" class="edge">
<title>Scooter&#45;&gt;History</title>
<path fill="none" stroke="#e80f91" d="M986.94,-229.29C900.61,-223.13 735.11,-208.54 596.93,-180 593.22,-179.23 589.41,-178.34 585.6,-177.37"/>
<polygon fill="#e80f91" stroke="#e80f91" points="987.01,-229.3 996.67,-234.48 992.33,-229.67 996.65,-229.97 996.65,-229.97 996.65,-229.97 992.33,-229.67 997.3,-225.51 987.01,-229.3"/>
<polygon fill="#e80f91" stroke="#e80f91" points="585.55,-177.35 577.07,-170.4 580.4,-175.96 576.22,-174.83 576.22,-174.83 576.22,-174.83 580.4,-175.96 574.72,-179.08 585.55,-177.35"/>
</g>
<!-- Scooter&#45;&gt;Location -->
<g id="edge15" class="edge">
<title>Scooter&#45;&gt;Location</title>
<path fill="none" stroke="#0d762d" d="M1045.93,-205.38C1045.93,-200.45 1045.93,-195.31 1045.93,-190.39"/>
<polygon fill="#0d762d" stroke="#0d762d" points="1045.93,-205.36 1041.43,-215.36 1045.93,-210.7 1045.93,-215.03 1045.93,-215.03 1045.93,-215.03 1045.93,-210.7 1050.43,-215.36 1045.93,-205.36"/>
<polygon fill="#0d762d" stroke="#0d762d" points="1045.93,-190.44 1050.43,-180.44 1045.93,-185.1 1045.93,-180.77 1045.93,-180.77 1045.93,-180.77 1045.93,-185.1 1041.43,-180.44 1045.93,-190.44"/>
</g>
<!-- Scooter&#45;&gt;Rent -->
<g id="edge16" class="edge">
<title>Scooter&#45;&gt;Rent</title>
<path fill="none" stroke="#dacd44" d="M991.55,-223.6C910,-209.5 757.69,-183.18 683.6,-170.38"/>
<polygon fill="#dacd44" stroke="#dacd44" points="991.63,-223.62 1000.72,-229.75 996.89,-224.52 1001.16,-225.26 1001.16,-225.26 1001.16,-225.26 996.89,-224.52 1002.26,-220.88 991.63,-223.62"/>
<polygon fill="#dacd44" stroke="#dacd44" points="683.87,-170.42 674.78,-164.28 678.61,-169.51 674.34,-168.77 674.34,-168.77 674.34,-168.77 678.61,-169.51 673.25,-173.15 683.87,-170.42"/>
</g>
<!-- Scooter&#45;&gt;RequestInService -->
<g id="edge18" class="edge">
<title>Scooter&#45;&gt;RequestInService</title>
<path fill="none" stroke="#296f45" d="M1087.47,-216C1111.92,-205.99 1142.96,-193.28 1168.52,-182.82"/>
<polygon fill="#296f45" stroke="#296f45" points="1087.66,-215.92 1076.7,-215.54 1082.72,-217.94 1078.71,-219.58 1078.71,-219.58 1078.71,-219.58 1082.72,-217.94 1080.11,-223.87 1087.66,-215.92"/>
<polygon fill="#296f45" stroke="#296f45" points="1168.45,-182.85 1179.41,-183.22 1173.39,-180.82 1177.4,-179.18 1177.4,-179.18 1177.4,-179.18 1173.39,-180.82 1176,-174.89 1168.45,-182.85"/>
</g>
<!-- Security -->
<g id="node24" class="node">
<title>Security</title>
<ellipse fill="none" stroke="black" cx="1387.93" cy="-162" rx="53.31" ry="18"/>
<text text-anchor="middle" x="1387.93" y="-157.32" font-family="Times,serif" font-size="14.00">Security</text>
</g>
<!-- Scooter&#45;&gt;Security -->
<g id="edge14" class="edge">
<title>Scooter&#45;&gt;Security</title>
<path fill="none" stroke="#2f12d8" d="M1100.45,-224.02C1157.08,-214.38 1248.11,-198 1325.93,-180 1330.03,-179.05 1334.26,-178.01 1338.51,-176.93"/>
<polygon fill="#2f12d8" stroke="#2f12d8" points="1100.48,-224.01 1089.87,-221.25 1095.22,-224.9 1090.95,-225.63 1090.95,-225.63 1090.95,-225.63 1095.22,-224.9 1091.37,-230.12 1100.48,-224.01"/>
<polygon fill="#2f12d8" stroke="#2f12d8" points="1338.36,-176.97 1349.18,-178.8 1343.52,-175.62 1347.71,-174.53 1347.71,-174.53 1347.71,-174.53 1343.52,-175.62 1346.9,-170.09 1338.36,-176.97"/>
</g>
<!-- Stantion -->
<g id="node27" class="node">
<title>Stantion</title>
<ellipse fill="none" stroke="black" cx="1111.93" cy="-333.25" rx="53.84" ry="18"/>
<text text-anchor="middle" x="1111.93" y="-328.57" font-family="Times,serif" font-size="14.00">Stantion</text>
</g>
<!-- Stantion&#45;&gt;Scooter -->
<g id="edge20" class="edge">
<title>Stantion&#45;&gt;Scooter</title>
<path fill="none" stroke="#f0d693" d="M1094.63,-306.76C1084.87,-292.38 1072.72,-274.47 1062.99,-260.14"/>
<polygon fill="#f0d693" stroke="#f0d693" points="1094.63,-306.76 1096.52,-317.56 1097.63,-311.17 1100.06,-314.76 1100.06,-314.76 1100.06,-314.76 1097.63,-311.17 1103.97,-312.51 1094.63,-306.76"/>
<polygon fill="#f0d693" stroke="#f0d693" points="1063.1,-260.3 1061.21,-249.5 1060.1,-255.88 1057.67,-252.3 1057.67,-252.3 1057.67,-252.3 1060.1,-255.88 1053.76,-254.55 1063.1,-260.3"/>
</g>
<!-- User -->
<g id="node28" class="node">
<title>User</title>
<ellipse fill="none" stroke="black" cx="360.93" cy="-234" rx="35.42" ry="18"/>
<text text-anchor="middle" x="360.93" y="-229.32" font-family="Times,serif" font-size="14.00">User</text>
</g>
<!-- User&#45;&gt;Alert -->
<g id="edge24" class="edge">
<title>User&#45;&gt;Alert</title>
<path fill="none" stroke="#da85bb" d="M341.64,-208.89C335.99,-201.83 329.82,-194.11 324.17,-187.05"/>
<polygon fill="#da85bb" stroke="#da85bb" points="341.49,-208.69 344.22,-219.31 344.82,-212.86 347.53,-216.24 347.53,-216.24 347.53,-216.24 344.82,-212.86 351.25,-213.69 341.49,-208.69"/>
<polygon fill="#da85bb" stroke="#da85bb" points="324.31,-187.22 321.57,-176.6 320.97,-183.05 318.27,-179.67 318.27,-179.67 318.27,-179.67 320.97,-183.05 314.54,-182.22 324.31,-187.22"/>
</g>
<!-- User&#45;&gt;Feedback -->
<g id="edge22" class="edge">
<title>User&#45;&gt;Feedback</title>
<path fill="none" stroke="#e03a8e" d="M324.7,-217.99C298.52,-207.15 263.02,-192.45 235.32,-180.97"/>
<polygon fill="#e03a8e" stroke="#e03a8e" points="324.6,-217.95 332.12,-225.94 329.53,-219.99 333.53,-221.65 333.53,-221.65 333.53,-221.65 329.53,-219.99 335.57,-217.62 324.6,-217.95"/>
<polygon fill="#e03a8e" stroke="#e03a8e" points="235.42,-181.01 227.9,-173.03 230.49,-178.97 226.49,-177.31 226.49,-177.31 226.49,-177.31 230.49,-178.97 224.46,-181.34 235.42,-181.01"/>
</g>
<!-- User&#45;&gt;History -->
<g id="edge23" class="edge">
<title>User&#45;&gt;History</title>
<path fill="none" stroke="#e9c565" d="M398.04,-218.49C427.17,-207.1 467.73,-191.24 498.02,-179.39"/>
<polygon fill="#e9c565" stroke="#e9c565" points="398.13,-218.45 387.18,-217.9 393.16,-220.39 389.13,-221.97 389.13,-221.97 389.13,-221.97 393.16,-220.39 390.46,-226.29 398.13,-218.45"/>
<polygon fill="#e9c565" stroke="#e9c565" points="497.84,-179.46 508.8,-180.01 502.81,-177.52 506.85,-175.94 506.85,-175.94 506.85,-175.94 502.81,-177.52 505.52,-171.63 497.84,-179.46"/>
</g>
<!-- User&#45;&gt;Purchase -->
<g id="edge21" class="edge">
<title>User&#45;&gt;Purchase</title>
<path fill="none" stroke="#aee50f" d="M380.01,-208.72C385.32,-201.96 391.08,-194.62 396.41,-187.84"/>
<polygon fill="#aee50f" stroke="#aee50f" points="380.07,-208.64 370.36,-213.72 376.78,-212.83 374.1,-216.24 374.1,-216.24 374.1,-216.24 376.78,-212.83 377.43,-219.28 380.07,-208.64"/>
<polygon fill="#aee50f" stroke="#aee50f" points="396.48,-187.76 406.19,-182.68 399.77,-183.57 402.45,-180.16 402.45,-180.16 402.45,-180.16 399.77,-183.57 399.12,-177.12 396.48,-187.76"/>
</g>
<!-- User&#45;&gt;Rating -->
<g id="edge26" class="edge">
<title>User&#45;&gt;Rating</title>
<path fill="none" stroke="#c36b08" d="M318.15,-224.65C270.47,-215.05 191.22,-198.27 123.93,-180 120.76,-179.14 117.5,-178.21 114.22,-177.24"/>
<polygon fill="#c36b08" stroke="#c36b08" points="317.98,-224.61 326.91,-230.99 323.21,-225.66 327.46,-226.51 327.46,-226.51 327.46,-226.51 323.21,-225.66 328.67,-222.16 317.98,-224.61"/>
<polygon fill="#c36b08" stroke="#c36b08" points="114.32,-177.27 106.07,-170.05 109.22,-175.71 105.08,-174.45 105.08,-174.45 105.08,-174.45 109.22,-175.71 103.45,-178.65 114.32,-177.27"/>
</g>
<!-- User&#45;&gt;Rent -->
<g id="edge25" class="edge">
<title>User&#45;&gt;Rent</title>
<path fill="none" stroke="#7da835" d="M404.36,-225.4C452.3,-216.53 531.48,-200.43 597.93,-180 600.26,-179.28 602.64,-178.5 605.04,-177.67"/>
<polygon fill="#7da835" stroke="#7da835" points="404.5,-225.38 393.85,-222.75 399.25,-226.34 394.99,-227.12 394.99,-227.12 394.99,-227.12 399.25,-226.34 395.47,-231.6 404.5,-225.38"/>
<polygon fill="#7da835" stroke="#7da835" points="605.08,-177.65 616.02,-178.43 610.09,-175.81 614.16,-174.32 614.16,-174.32 614.16,-174.32 610.09,-175.81 612.92,-169.98 605.08,-177.65"/>
</g>
<!-- Worker -->
<g id="node29" class="node">
<title>Worker</title>
<ellipse fill="none" stroke="black" cx="926.93" cy="-162" rx="47.53" ry="18"/>
<text text-anchor="middle" x="926.93" y="-157.32" font-family="Times,serif" font-size="14.00">Worker</text>
</g>
<!-- Worker&#45;&gt;RegistrationForService -->
<g id="edge27" class="edge">
<title>Worker&#45;&gt;RegistrationForService</title>
<path fill="none" stroke="#c90696" d="M942.64,-135.42C946.37,-129.36 950.35,-122.88 954.08,-116.8"/>
<polygon fill="#c90696" stroke="#c90696" points="942.75,-135.25 933.68,-141.41 939.96,-139.79 937.69,-143.48 937.69,-143.48 937.69,-143.48 939.96,-139.79 941.35,-146.13 942.75,-135.25"/>
<polygon fill="#c90696" stroke="#c90696" points="953.91,-117.08 962.98,-110.92 956.7,-112.54 958.97,-108.85 958.97,-108.85 958.97,-108.85 956.7,-112.54 955.31,-106.2 953.91,-117.08"/>
</g>
<!-- WorkerTime -->
<g id="node30" class="node">
<title>WorkerTime</title>
<ellipse fill="none" stroke="black" cx="1187.93" cy="-90" rx="72.25" ry="18"/>
<text text-anchor="middle" x="1187.93" y="-85.33" font-family="Times,serif" font-size="14.00">WorkerTime</text>
</g>
<!-- Worker&#45;&gt;WorkerTime -->
<g id="edge28" class="edge">
<title>Worker&#45;&gt;WorkerTime</title>
<path fill="none" stroke="#36f5eb" d="M972.72,-146.93C976.17,-145.92 979.6,-144.94 982.93,-144 1031.54,-130.34 1087.01,-116.08 1127.98,-105.8"/>
<polygon fill="#36f5eb" stroke="#36f5eb" points="972.92,-146.87 962.06,-145.39 967.81,-148.38 963.66,-149.61 963.66,-149.61 963.66,-149.61 967.81,-148.38 964.61,-154.02 972.92,-146.87"/>
<polygon fill="#36f5eb" stroke="#36f5eb" points="1128.04,-105.78 1138.83,-107.72 1133.22,-104.49 1137.42,-103.44 1137.42,-103.44 1137.42,-103.44 1133.22,-104.49 1136.65,-98.99 1128.04,-105.78"/>
</g>
</g>
</svg>
